<svg version="1.1" id="Layer_1" xmlns="http://www.w3.org/2000/svg" xmlns:xlink="http://www.w3.org/1999/xlink" x="0px" y="0px"
	 width="100%" viewBox="0 0 225 225" enable-background="new 0 0 225 225" xml:space="preserve">
<path fill="#050505" opacity="1.000000" stroke="none" 
	d="
M129.000000,226.000000 
	C86.000000,226.000000 43.500004,226.000000 1.000006,226.000000 
	C1.000004,151.000000 1.000004,76.000015 1.000002,1.000016 
	C75.999992,1.000010 150.999985,1.000010 225.999969,1.000005 
	C225.999985,75.999985 225.999985,150.999969 226.000000,225.999969 
	C193.833328,226.000000 161.666672,226.000000 129.000000,226.000000 
M68.500122,219.773911 
	C103.984169,219.773911 139.468307,219.821884 174.952240,219.757828 
	C200.654572,219.711426 219.583099,201.199661 219.715897,175.501511 
	C219.930267,134.021149 219.926590,92.538101 219.714752,51.057709 
	C219.592682,27.151999 201.813766,7.527376 179.283264,7.293330 
	C135.141647,6.834787 90.988388,6.820995 46.847115,7.293151 
	C24.975338,7.527102 7.111766,26.893761 7.110499,48.726398 
	C7.107987,92.040382 7.098992,135.354385 7.137763,178.668320 
	C7.139977,181.143280 7.265748,183.681656 7.810300,186.082489 
	C11.953373,204.348495 26.254065,217.241333 45.064632,219.167709 
	C52.486031,219.927734 60.018406,219.604080 68.500122,219.773911 
z"/>
<path fill="#FDFDFC" opacity="1.000000" stroke="none" 
	d="
M68.000183,219.773895 
	C60.018406,219.604080 52.486031,219.927734 45.064632,219.167709 
	C26.254065,217.241333 11.953373,204.348495 7.810300,186.082489 
	C7.265748,183.681656 7.139977,181.143280 7.137763,178.668320 
	C7.098992,135.354385 7.107987,92.040382 7.110499,48.726398 
	C7.111766,26.893761 24.975338,7.527102 46.847115,7.293151 
	C90.988388,6.820995 135.141647,6.834787 179.283264,7.293330 
	C201.813766,7.527376 219.592682,27.151999 219.714752,51.057709 
	C219.926590,92.538101 219.930267,134.021149 219.715897,175.501511 
	C219.583099,201.199661 200.654572,219.711426 174.952240,219.757828 
	C139.468307,219.821884 103.984169,219.773911 68.000183,219.773895 
M93.295151,146.742859 
	C91.523590,146.409103 89.752930,146.070480 87.980202,145.743057 
	C86.397530,145.450745 83.943245,144.424622 83.412422,145.043091 
	C82.357803,146.271805 82.362106,148.409378 81.928841,150.171402 
	C82.267441,150.316330 82.606041,150.461258 82.944641,150.606186 
	C83.869270,149.831558 84.793900,149.056946 85.718529,148.282318 
	C85.806030,148.833054 85.893524,149.383804 85.981018,149.934540 
	C88.668724,149.982666 91.356422,150.030792 94.746254,150.042480 
	C97.294060,150.381317 99.839302,150.924042 102.390953,150.956039 
	C103.375420,150.968369 104.374413,149.820877 105.366791,149.201813 
	C104.475632,148.372604 103.627098,146.896881 102.685356,146.834778 
	C99.799377,146.644470 96.877625,146.996658 93.295151,146.742859 
M105.021317,103.380043 
	C104.649864,103.193146 104.278419,103.006248 103.185181,102.877411 
	C97.662079,105.008247 97.081223,109.936958 95.959312,114.905029 
	C95.648872,114.974655 95.334679,115.003540 94.960503,114.216988 
	C93.858253,107.144821 90.223190,102.716148 84.262299,102.269760 
	C78.658501,101.850105 72.998589,102.179802 67.357750,102.179802 
	C67.522514,107.110008 70.818779,110.155464 76.478592,110.947556 
	C85.734734,112.242950 85.738602,112.242966 85.724503,121.874985 
	C85.722069,123.540642 86.075348,125.359238 85.520164,126.825401 
	C85.040985,128.090836 83.562897,129.770050 82.422241,129.854172 
	C77.781906,130.196457 73.086296,130.198059 68.446716,129.850021 
	C67.307877,129.764587 65.497169,127.912437 65.457642,126.819641 
	C65.415558,125.655853 66.895287,124.081787 68.109467,123.337997 
	C69.116371,122.721176 70.722534,123.165199 72.028984,122.940353 
	C77.417259,122.012993 80.647690,118.815201 80.507027,114.162384 
	C77.065598,114.162384 73.593338,114.180031 70.121353,114.156891 
	C67.275505,114.137932 64.429977,114.070419 61.869995,113.258652 
	C62.268646,112.078850 62.667297,110.899048 63.326893,108.946991 
	C58.606174,108.946991 54.541553,108.946991 50.607616,108.946991 
	C48.907536,98.417931 49.174435,98.438919 58.758343,97.705551 
	C62.326847,97.432487 65.827660,95.402847 69.181755,93.802116 
	C70.039047,93.392982 70.806656,91.394081 70.528366,90.444016 
	C70.299286,89.661964 68.475082,88.941399 67.333847,88.902832 
	C62.508003,88.739738 57.670319,88.737709 52.842350,88.871414 
	C45.759716,89.067551 41.044819,93.770950 40.912094,100.882767 
	C40.772224,108.377495 40.873138,115.876740 40.870636,123.374008 
	C40.868942,128.455872 40.870316,133.537720 40.870316,139.439407 
	C51.856777,135.180679 49.443089,126.048004 50.256874,118.293594 
	C52.419777,118.115021 54.213600,117.966927 56.755264,117.949570 
	C56.782825,119.312775 57.165607,120.786514 56.781292,122.021553 
	C53.915508,131.231140 59.365463,138.898865 68.998283,138.991119 
	C73.313141,139.032455 77.628937,139.025848 81.943932,138.992569 
	C89.236877,138.936325 93.529709,135.287720 95.439697,128.011673 
	C95.750046,128.058151 96.058052,128.116913 96.544922,128.877563 
	C96.544922,132.129654 96.544922,135.381744 96.544922,139.329681 
	C102.826424,137.177521 104.974899,133.356369 105.218636,127.114944 
	C105.182816,120.385612 105.147003,113.656273 105.261681,106.215767 
	C105.211578,105.494347 105.161476,104.772934 105.021317,103.380043 
M107.782059,129.852371 
	C109.457527,135.467392 113.044884,138.767670 118.201851,138.947357 
	C123.520317,139.132660 128.858093,139.166214 134.173264,138.937439 
	C140.266403,138.675171 144.764450,134.134369 145.038330,128.041000 
	C145.254822,123.224625 145.227402,118.387627 145.077927,113.566933 
	C144.897278,107.741096 141.282196,103.102295 135.523331,102.481255 
	C129.859970,101.870499 124.079262,102.348053 118.230293,102.348053 
	C119.775406,108.285683 123.154396,110.596626 130.199768,111.091370 
	C132.730515,111.269081 135.609940,110.614952 136.069321,114.707420 
	C137.730698,129.508316 137.240463,130.150070 122.568512,130.030685 
	C122.402115,130.029343 122.233978,130.014511 122.069534,130.032410 
	C117.813751,130.495590 116.032425,128.731400 116.161125,124.328705 
	C116.384697,116.680794 116.246292,109.020966 116.188560,101.366676 
	C116.155571,96.992874 114.870842,93.092712 110.968475,90.651428 
	C109.555145,89.767265 107.347694,88.448830 107.392952,92.996521 
	C107.546890,105.032005 107.700836,117.067482 107.782059,129.852371 
M109.974174,163.566833 
	C127.819580,163.579865 145.539536,162.234283 162.787857,157.419434 
	C178.119217,153.139709 192.767776,147.206680 204.412674,135.839142 
	C216.915115,123.634506 218.325470,108.329575 208.350967,96.555511 
	C207.726303,95.818146 206.731400,95.394424 205.908737,94.824791 
	C210.582947,105.996613 208.388412,115.950020 201.031906,124.365471 
	C195.965668,130.160965 189.973160,135.517410 183.482086,139.629639 
	C160.840637,153.973557 135.319672,159.017380 108.102837,160.976471 
	C101.072212,160.976471 94.041580,160.976471 87.010956,160.976471 
	C86.986061,161.576111 86.961166,162.175751 86.936279,162.775391 
	C94.342697,162.964874 101.749123,163.154343 109.974174,163.566833 
M126.173859,64.688316 
	C117.201050,64.705833 108.215233,64.419540 99.258072,64.802757 
	C79.294724,65.656860 59.985016,69.652512 41.884789,78.380989 
	C29.854078,84.182564 18.961895,91.442772 13.399766,104.364159 
	C9.280411,113.933823 12.318931,127.084442 19.863178,131.897903 
	C19.800909,130.755432 19.911142,129.799942 19.677198,128.937866 
	C16.742077,118.122009 19.390789,108.532906 27.326159,101.039146 
	C33.556339,95.155678 40.346386,89.495369 47.778370,85.321983 
	C72.311317,71.545670 99.355118,67.353645 127.704315,66.746468 
	C133.240173,67.092712 138.776031,67.438957 144.311890,67.785202 
	C144.354462,67.180756 144.397049,66.576309 144.439636,65.971863 
	C138.637024,65.576256 132.834412,65.180649 126.173859,64.688316 
M169.622971,111.099251 
	C174.381424,110.512047 176.514252,112.064095 176.316956,117.393066 
	C175.773376,132.074509 178.337143,129.808136 163.491119,130.019348 
	C161.992966,130.040665 160.361404,130.348877 159.035034,129.861679 
	C157.881500,129.437988 156.248398,128.024628 156.304321,127.142242 
	C156.387924,125.823357 157.547119,124.310974 158.672775,123.411522 
	C159.427032,122.808846 160.949966,123.269867 162.070053,123.005486 
	C166.649979,121.924408 171.024811,120.537392 171.959961,114.345413 
	C166.655579,114.345413 161.663666,113.857658 156.808548,114.464478 
	C150.208313,115.289406 146.282608,121.339951 146.974838,128.420654 
	C147.571472,134.523575 152.344238,138.846771 158.829285,138.983780 
	C163.657928,139.085815 168.491928,139.079803 173.320892,138.985733 
	C180.015640,138.855331 184.891800,134.809891 185.521454,128.174118 
	C186.006348,123.063721 185.947739,117.835678 185.481216,112.719185 
	C184.987961,107.309708 180.681046,102.745010 175.511292,102.327713 
	C169.612320,101.851540 163.645370,102.217522 157.649170,102.217522 
	C158.734451,107.900307 161.650085,110.138771 169.622971,111.099251 
M105.428627,93.072212 
	C106.036835,89.723953 104.629517,88.970512 101.960747,90.668472 
	C97.644897,93.414368 96.451988,97.682037 96.442245,103.330200 
	C102.183945,102.160454 104.325294,98.575668 105.428627,93.072212 
M122.093414,145.571457 
	C121.451485,146.959259 120.809555,148.347061 120.167618,149.734863 
	C121.927391,150.035873 123.687157,150.336884 125.790848,150.696716 
	C125.800766,150.892563 125.848167,151.828674 125.916527,153.178482 
	C128.951355,149.108749 127.967613,147.120560 122.093414,145.571457 
M129.208603,147.685364 
	C129.213058,147.283249 129.217499,146.881134 129.221939,146.479034 
	C129.056152,146.478592 128.746475,146.466614 128.745468,146.479385 
	C128.712997,146.884384 128.710464,147.291794 129.208603,147.685364 
z"/>
<path fill="#9FD373" opacity="1.000000" stroke="none" 
	d="
M127.053490,66.292450 
	C99.355118,67.353645 72.311317,71.545670 47.778370,85.321983 
	C40.346386,89.495369 33.556339,95.155678 27.326159,101.039146 
	C19.390789,108.532906 16.742077,118.122009 19.677198,128.937866 
	C19.911142,129.799942 19.800909,130.755432 19.863178,131.897903 
	C12.318931,127.084442 9.280411,113.933823 13.399766,104.364159 
	C18.961895,91.442772 29.854078,84.182564 41.884789,78.380989 
	C59.985016,69.652512 79.294724,65.656860 99.258072,64.802757 
	C108.215233,64.419540 117.201050,64.705833 126.595291,65.114174 
	C127.028984,65.790840 127.041237,66.041649 127.053490,66.292450 
z"/>
<path fill="#9FD373" opacity="1.000000" stroke="none" 
	d="
M109.038071,161.114685 
	C135.319672,159.017380 160.840637,153.973557 183.482086,139.629639 
	C189.973160,135.517410 195.965668,130.160965 201.031906,124.365471 
	C208.388412,115.950020 210.582947,105.996613 205.908737,94.824791 
	C206.731400,95.394424 207.726303,95.818146 208.350967,96.555511 
	C218.325470,108.329575 216.915115,123.634506 204.412674,135.839142 
	C192.767776,147.206680 178.119217,153.139709 162.787857,157.419434 
	C145.539536,162.234283 127.819580,163.579865 109.526260,163.183975 
	C109.064926,162.238968 109.051498,161.676834 109.038071,161.114685 
z"/>
<path fill="#9DD371" opacity="1.000000" stroke="none" 
	d="
M94.965042,127.981110 
	C93.529709,135.287720 89.236877,138.936325 81.943932,138.992569 
	C77.628937,139.025848 73.313141,139.032455 68.998283,138.991119 
	C59.365463,138.898865 53.915508,131.231140 56.781292,122.021553 
	C57.165607,120.786514 56.782825,119.312775 56.455868,117.561607 
	C57.965752,116.123909 59.775028,115.074181 61.584309,114.024445 
	C64.429977,114.070419 67.275505,114.137932 70.121353,114.156891 
	C73.593338,114.180031 77.065598,114.162384 80.507027,114.162384 
	C80.647690,118.815201 77.417259,122.012993 72.028984,122.940353 
	C70.722534,123.165199 69.116371,122.721176 68.109467,123.337997 
	C66.895287,124.081787 65.415558,125.655853 65.457642,126.819641 
	C65.497169,127.912437 67.307877,129.764587 68.446716,129.850021 
	C73.086296,130.198059 77.781906,130.196457 82.422241,129.854172 
	C83.562897,129.770050 85.040985,128.090836 85.520164,126.825401 
	C86.075348,125.359238 85.722069,123.540642 85.724503,121.874985 
	C85.738602,112.242966 85.734734,112.242950 76.478592,110.947556 
	C70.818779,110.155464 67.522514,107.110008 67.357750,102.179802 
	C72.998589,102.179802 78.658501,101.850105 84.262299,102.269760 
	C90.223190,102.716148 93.858253,107.144821 94.914772,115.063530 
	C94.901039,119.933754 94.933044,123.957428 94.965042,127.981110 
z"/>
<path fill="#9FD373" opacity="1.000000" stroke="none" 
	d="
M169.190720,111.079926 
	C161.650085,110.138771 158.734451,107.900307 157.649170,102.217522 
	C163.645370,102.217522 169.612320,101.851540 175.511292,102.327713 
	C180.681046,102.745010 184.987961,107.309708 185.481216,112.719185 
	C185.947739,117.835678 186.006348,123.063721 185.521454,128.174118 
	C184.891800,134.809891 180.015640,138.855331 173.320892,138.985733 
	C168.491928,139.079803 163.657928,139.085815 158.829285,138.983780 
	C152.344238,138.846771 147.571472,134.523575 146.974838,128.420654 
	C146.282608,121.339951 150.208313,115.289406 156.808548,114.464478 
	C161.663666,113.857658 166.655579,114.345413 171.959961,114.345413 
	C171.024811,120.537392 166.649979,121.924408 162.070053,123.005486 
	C160.949966,123.269867 159.427032,122.808846 158.672775,123.411522 
	C157.547119,124.310974 156.387924,125.823357 156.304321,127.142242 
	C156.248398,128.024628 157.881500,129.437988 159.035034,129.861679 
	C160.361404,130.348877 161.992966,130.040665 163.491119,130.019348 
	C178.337143,129.808136 175.773376,132.074509 176.316956,117.393066 
	C176.514252,112.064095 174.381424,110.512047 169.190720,111.079926 
z"/>
<path fill="#9ED371" opacity="1.000000" stroke="none" 
	d="
M107.631691,92.103836 
	C107.347694,88.448830 109.555145,89.767265 110.968475,90.651428 
	C114.870842,93.092712 116.155571,96.992874 116.188560,101.366676 
	C116.246292,109.020966 116.384697,116.680794 116.161125,124.328705 
	C116.032425,128.731400 117.813751,130.495590 122.069534,130.032410 
	C122.233978,130.014511 122.402115,130.029343 122.568512,130.030685 
	C137.240463,130.150070 137.730698,129.508316 136.069321,114.707420 
	C135.609940,110.614952 132.730515,111.269081 130.199768,111.091370 
	C123.154396,110.596626 119.775406,108.285683 118.230293,102.348053 
	C124.079262,102.348053 129.859970,101.870499 135.523331,102.481255 
	C141.282196,103.102295 144.897278,107.741096 145.077927,113.566933 
	C145.227402,118.387627 145.254822,123.224625 145.038330,128.041000 
	C144.764450,134.134369 140.266403,138.675171 134.173264,138.937439 
	C128.858093,139.166214 123.520317,139.132660 118.201851,138.947357 
	C113.044884,138.767670 109.457527,135.467392 108.137421,129.184448 
	C108.633751,116.827980 108.789078,105.139519 108.860817,93.450531 
	C108.863556,93.004158 108.059692,92.552849 107.631691,92.103836 
z"/>
<path fill="#9DD270" opacity="1.000000" stroke="none" 
	d="
M61.727150,113.641548 
	C59.775028,115.074181 57.965752,116.123909 56.081947,117.496231 
	C54.213600,117.966927 52.419777,118.115021 50.256874,118.293594 
	C49.443089,126.048004 51.856777,135.180679 40.870316,139.439407 
	C40.870316,133.537720 40.868942,128.455872 40.870636,123.374008 
	C40.873138,115.876740 40.772224,108.377495 40.912094,100.882767 
	C41.044819,93.770950 45.759716,89.067551 52.842350,88.871414 
	C57.670319,88.737709 62.508003,88.739738 67.333847,88.902832 
	C68.475082,88.941399 70.299286,89.661964 70.528366,90.444016 
	C70.806656,91.394081 70.039047,93.392982 69.181755,93.802116 
	C65.827660,95.402847 62.326847,97.432487 58.758343,97.705551 
	C49.174435,98.438919 48.907536,98.417931 50.607616,108.946991 
	C54.541553,108.946991 58.606174,108.946991 63.326893,108.946991 
	C62.667297,110.899048 62.268646,112.078850 61.727150,113.641548 
z"/>
<path fill="#9BD26E" opacity="1.000000" stroke="none" 
	d="
M96.423195,114.821983 
	C97.081223,109.936958 97.662079,105.008247 103.685104,103.110306 
	C104.493805,103.579308 104.802582,103.815407 105.111366,104.051514 
	C105.161476,104.772934 105.211578,105.494347 104.873383,106.864403 
	C104.687225,114.360512 104.889359,121.207993 105.091492,128.055466 
	C104.974899,133.356369 102.826424,137.177521 96.544922,139.329681 
	C96.544922,135.381744 96.544922,132.129654 96.629654,128.076981 
	C96.617325,123.124924 96.520256,118.973457 96.423195,114.821983 
z"/>
<path fill="#A0D475" opacity="1.000000" stroke="none" 
	d="
M105.346024,93.444145 
	C104.325294,98.575668 102.183945,102.160454 96.442245,103.330200 
	C96.451988,97.682037 97.644897,93.414368 101.960747,90.668472 
	C104.629517,88.970512 106.036835,89.723953 105.346024,93.444145 
z"/>
<path fill="#90CD59" opacity="1.000000" stroke="none" 
	d="
M107.512321,92.550179 
	C108.059692,92.552849 108.863556,93.004158 108.860817,93.450531 
	C108.789078,105.139519 108.633751,116.827980 108.173782,128.809753 
	C107.700836,117.067482 107.546890,105.032005 107.512321,92.550179 
z"/>
<path fill="#D4D4D5" opacity="1.000000" stroke="none" 
	d="
M94.044121,150.078918 
	C91.356422,150.030792 88.668724,149.982666 85.981018,149.934540 
	C85.893524,149.383804 85.806030,148.833054 85.718529,148.282318 
	C84.793900,149.056946 83.869270,149.831558 82.944641,150.606186 
	C82.606041,150.461258 82.267441,150.316330 81.928841,150.171402 
	C82.362106,148.409378 82.357803,146.271805 83.412422,145.043091 
	C83.943245,144.424622 86.397530,145.450745 87.980202,145.743057 
	C89.752930,146.070480 91.523590,146.409103 93.641182,147.304718 
	C94.006187,148.604019 94.025154,149.341476 94.044121,150.078918 
z"/>
<path fill="#B4DC93" opacity="1.000000" stroke="none" 
	d="
M108.570450,161.045578 
	C109.051498,161.676834 109.064926,162.238968 109.116943,163.072479 
	C101.749123,163.154343 94.342697,162.964874 86.936279,162.775391 
	C86.961166,162.175751 86.986061,161.576111 87.010956,160.976471 
	C94.041580,160.976471 101.072212,160.976471 108.570450,161.045578 
z"/>
<path fill="#DBDBDC" opacity="1.000000" stroke="none" 
	d="
M94.395187,150.060699 
	C94.025154,149.341476 94.006187,148.604019 93.978500,147.502228 
	C96.877625,146.996658 99.799377,146.644470 102.685356,146.834778 
	C103.627098,146.896881 104.475632,148.372604 105.366791,149.201813 
	C104.374413,149.820877 103.375420,150.968369 102.390953,150.956039 
	C99.839302,150.924042 97.294060,150.381317 94.395187,150.060699 
z"/>
<path fill="#CDCDCE" opacity="1.000000" stroke="none" 
	d="
M122.455978,145.703110 
	C127.967613,147.120560 128.951355,149.108749 125.916527,153.178482 
	C125.848167,151.828674 125.800766,150.892563 125.790848,150.696716 
	C123.687157,150.336884 121.927391,150.035873 120.167618,149.734863 
	C120.809555,148.347061 121.451485,146.959259 122.455978,145.703110 
z"/>
<path fill="#C5E3AE" opacity="1.000000" stroke="none" 
	d="
M127.378906,66.519455 
	C127.041237,66.041649 127.028984,65.790840 127.024261,65.162537 
	C132.834412,65.180649 138.637024,65.576256 144.439636,65.971863 
	C144.397049,66.576309 144.354462,67.180756 144.311890,67.785202 
	C138.776031,67.438957 133.240173,67.092712 127.378906,66.519455 
z"/>
<path fill="#DFF0D3" opacity="1.000000" stroke="none" 
	d="
M96.191254,114.863510 
	C96.520256,118.973457 96.617325,123.124924 96.539047,127.732185 
	C96.058052,128.116913 95.750046,128.058151 95.202377,127.996391 
	C94.933044,123.957428 94.901039,119.933754 94.942886,115.450882 
	C95.334679,115.003540 95.648872,114.974655 96.191254,114.863510 
z"/>
<path fill="#91CE5B" opacity="1.000000" stroke="none" 
	d="
M105.155060,127.585205 
	C104.889359,121.207993 104.687225,114.360512 104.798134,107.219986 
	C105.147003,113.656273 105.182816,120.385612 105.155060,127.585205 
z"/>
<path fill="#CDCDCE" opacity="1.000000" stroke="none" 
	d="
M128.956024,147.692108 
	C128.710464,147.291794 128.712997,146.884384 128.745468,146.479385 
	C128.746475,146.466614 129.056152,146.478592 129.221939,146.479034 
	C129.217499,146.881134 129.213058,147.283249 128.956024,147.692108 
z"/>
<path fill="#91CE5B" opacity="1.000000" stroke="none" 
	d="
M105.066345,103.715775 
	C104.802582,103.815407 104.493805,103.579308 104.045990,103.081284 
	C104.278419,103.006248 104.649864,103.193146 105.066345,103.715775 
z"/>
</svg>