<svg version="1.1" id="Layer_1" xmlns="http://www.w3.org/2000/svg" xmlns:xlink="http://www.w3.org/1999/xlink" x="0px" y="0px"
	 width="100%" viewBox="0 0 224 224" enable-background="new 0 0 224 224" xml:space="preserve">
<path fill="#029B40" opacity="1.000000" stroke="none" 
	d="
M156.000000,225.000000 
	C104.000000,225.000000 52.500008,225.000000 1.000007,225.000000 
	C1.000005,150.333344 1.000005,75.666679 1.000002,1.000017 
	C75.666656,1.000011 150.333313,1.000011 224.999969,1.000006 
	C224.999985,75.666649 224.999985,150.333298 225.000000,224.999969 
	C202.166672,225.000000 179.333328,225.000000 156.000000,225.000000 
M124.082336,179.065659 
	C124.082336,179.065659 124.170464,179.090240 125.046532,178.690308 
	C125.780617,178.062042 126.514709,177.433777 127.402054,176.793640 
	C127.402054,176.793640 127.459198,176.936340 127.513573,177.726562 
	C129.253189,181.303375 135.537796,184.802475 139.116943,184.144394 
	C138.330429,183.154831 137.560959,182.186676 137.249557,181.794876 
	C140.109192,180.397049 142.636612,179.161636 145.844193,178.151031 
	C146.607986,178.451828 147.353134,178.817810 148.138718,179.042358 
	C151.954468,180.133087 156.029175,179.784470 157.815308,176.297073 
	C159.106796,173.775482 159.089783,169.747635 158.011597,167.048538 
	C156.474747,163.201263 152.401291,163.027863 148.581497,163.692215 
	C147.457184,163.887741 146.313690,163.973068 144.682236,163.635605 
	C141.725525,162.534424 138.768814,161.433258 135.812088,160.332077 
	C135.674225,160.691376 135.536362,161.050674 135.398483,161.409958 
	C135.917068,161.999603 136.435638,162.589233 136.168488,163.278137 
	C132.872864,163.838547 129.157867,163.438553 126.658165,167.088242 
	C126.068687,164.069885 125.479202,161.051514 124.649704,157.453125 
	C123.759773,156.973755 122.869843,156.494400 121.708359,155.609009 
	C120.936081,155.781860 120.163803,155.954697 119.073860,156.697083 
	C118.933899,157.107819 118.793938,157.518539 118.306404,158.457596 
	C117.176682,160.209183 116.046967,161.960770 114.718819,163.912155 
	C114.718819,163.912155 114.524971,164.116272 114.565285,164.148102 
	C114.565285,164.148102 114.517044,164.118134 113.951965,164.040115 
	C113.622238,164.198410 113.292503,164.356705 112.305115,164.758301 
	C111.864265,164.869247 111.423416,164.980209 110.888222,164.550079 
	C110.581886,164.406387 110.275551,164.262711 109.450676,163.843552 
	C108.340958,163.843552 107.231239,163.843552 106.110413,163.843552 
	C106.110413,169.139008 106.110413,173.989517 106.110413,180.738525 
	C108.556778,178.929276 109.901535,177.934738 111.478699,176.179489 
	C111.417793,175.132477 111.356888,174.085449 111.601158,172.278976 
	C111.768250,171.199921 111.935341,170.120850 112.034416,169.011856 
	C112.034416,169.011856 112.046425,169.085175 112.891083,168.913437 
	C114.573067,168.766647 116.255043,168.619858 118.046738,169.426865 
	C118.375641,172.576508 118.704544,175.726151 119.723564,179.121384 
	C120.448318,179.218262 121.173073,179.315140 122.082428,179.842728 
	C122.749573,179.614197 123.416725,179.385666 124.082336,179.065659 
M65.028786,99.136337 
	C65.028786,99.136337 65.316795,99.334930 65.912148,99.061600 
	C67.663155,97.081482 69.414154,95.101357 71.055458,93.043098 
	C71.055458,93.043098 71.134331,93.152260 71.769264,92.926651 
	C77.847328,87.951019 83.925400,82.975395 90.676964,77.829407 
	C93.681061,75.848061 96.685158,73.866714 99.689255,71.885368 
	C99.311775,71.274406 98.934296,70.663445 98.556816,70.052483 
	C95.653160,71.860176 92.749512,73.667870 89.181564,75.748611 
	C81.384079,81.105850 73.586586,86.463089 65.865822,91.848877 
	C65.865822,91.848877 65.884171,91.769089 65.212219,91.911850 
	C63.108154,93.593887 61.004086,95.275917 58.255573,97.101593 
	C56.120144,98.934547 53.984718,100.767502 51.328812,102.982231 
	C50.737854,103.607239 50.146900,104.232246 48.976273,105.132706 
	C46.477264,107.576149 43.579170,109.730911 41.560345,112.521706 
	C37.024067,118.792557 32.164658,125.018364 28.874916,131.945480 
	C25.984880,138.030960 29.395319,143.437820 36.136211,144.421371 
	C41.475597,145.200409 47.139400,145.185760 52.468811,144.333435 
	C68.018028,141.846664 82.580765,136.137466 96.757515,129.421967 
	C99.890007,127.938110 102.994865,126.395912 106.112442,124.880562 
	C105.883904,124.350502 105.655373,123.820442 105.426834,123.290382 
	C103.949043,123.732651 102.471428,124.175529 100.993423,124.617096 
	C90.440262,127.769882 79.853355,130.648041 68.643944,129.093475 
	C57.736755,127.580818 53.822578,120.448189 58.461056,110.542038 
	C60.056263,107.135231 61.559940,103.685577 63.736969,100.161491 
	C64.263031,99.882423 64.789093,99.603363 65.028786,99.136337 
M74.160133,177.383240 
	C76.262421,178.105438 78.364708,178.827637 81.189857,179.798157 
	C81.189857,175.964554 80.654854,173.178192 81.320312,170.716354 
	C82.226814,167.362808 79.616119,162.768753 84.484100,160.579193 
	C84.539124,160.554443 83.839188,157.400848 83.018234,157.126953 
	C79.219170,155.859573 75.983253,158.546432 75.770287,163.023849 
	C75.580612,167.011658 75.867531,171.025635 75.590721,175.003494 
	C75.512558,176.126831 74.192665,177.163773 72.570129,178.302231 
	C72.344719,173.562439 72.119301,168.822632 71.897423,164.157135 
	C69.035515,163.988174 66.465210,163.478912 63.999531,163.792435 
	C61.582935,164.099716 57.895714,164.628586 57.213295,166.154572 
	C55.938477,169.005234 55.651199,172.871796 56.506905,175.872543 
	C56.974846,177.513519 60.553829,179.006271 62.852161,179.214203 
	C66.352737,179.530914 69.959396,178.674881 74.160133,177.383240 
M145.559708,115.256065 
	C142.907501,116.526154 140.163971,119.015900 137.621124,118.825500 
	C131.327957,118.354286 125.126610,116.656616 118.394669,115.356407 
	C117.342644,117.841476 116.018097,120.970299 114.732666,124.006706 
	C123.275398,129.731720 134.988724,131.528580 145.739548,128.983475 
	C154.237656,126.971672 159.257736,121.755554 159.824799,114.348198 
	C160.405930,106.756866 156.938995,102.097061 147.836990,98.906860 
	C143.311920,97.320854 138.505997,96.518166 134.024185,94.836029 
	C132.346085,94.206177 129.916687,91.807968 130.149994,90.708199 
	C130.533524,88.900162 132.540039,86.787704 134.354111,86.098869 
	C136.536285,85.270256 139.338486,85.320526 141.683441,85.840988 
	C145.795151,86.753593 149.763092,88.313980 154.144272,89.715973 
	C155.465973,86.516922 156.755814,83.395004 158.116699,80.101128 
	C147.377823,73.867302 136.686340,72.331635 125.687126,77.128212 
	C119.290047,79.917877 115.747513,85.109993 115.739326,92.432999 
	C115.731133,99.761292 120.005630,103.685478 126.289818,105.855927 
	C130.200516,107.206627 134.346008,107.863663 138.303375,109.097481 
	C141.321930,110.038612 145.126404,110.153397 145.559708,115.256065 
M120.273224,58.902477 
	C117.532074,60.548733 114.790924,62.194988 111.571289,64.128616 
	C112.248940,63.365067 112.564064,62.658817 113.007462,62.566116 
	C116.459206,61.844475 120.007851,61.497440 123.388954,60.545803 
	C129.789902,58.744217 135.977982,55.828259 142.477936,54.829758 
	C150.098312,53.659149 158.100601,52.987812 165.673950,54.024143 
	C174.252777,55.198055 177.275375,61.616245 174.086380,69.605087 
	C172.460266,73.678665 169.619843,77.265945 167.346832,81.084084 
	C166.853485,81.912788 166.439545,82.788780 165.989044,83.642998 
	C166.454910,83.967186 166.920792,84.291374 167.386673,84.615562 
	C177.272644,75.838310 187.579330,67.272995 191.144104,53.533848 
	C192.577652,48.008743 189.487808,43.799999 183.438293,42.836445 
	C178.588989,42.064060 173.446060,41.978405 168.583054,42.658237 
	C151.758118,45.010315 136.236923,51.502293 120.273224,58.902477 
M177.971237,168.504547 
	C180.739655,167.068192 181.119217,168.811493 181.146149,170.926788 
	C181.179352,173.534683 181.154083,176.143341 181.154083,178.850052 
	C183.357864,178.850052 185.047409,178.850052 186.913422,178.850052 
	C186.913422,176.426239 186.913879,174.433319 186.913193,172.440399 
	C186.912903,171.607986 186.953613,170.772842 186.901520,169.943604 
	C186.533386,164.084961 183.703751,162.246918 178.305756,164.339264 
	C177.577179,164.621674 176.816025,165.185455 176.117004,165.119568 
	C171.502426,164.684677 166.900726,164.113129 162.163330,163.571075 
	C162.163330,169.387024 162.163330,174.483429 162.163330,179.619171 
	C165.577606,180.546234 167.186691,179.573898 167.040787,176.128647 
	C166.956375,174.135086 166.824936,172.095795 167.161804,170.154694 
	C167.304321,169.333527 168.596375,168.711868 169.365921,167.999527 
	C169.913376,168.745255 170.853226,169.451645 170.932678,170.244308 
	C171.147369,172.386169 170.662628,174.637802 171.114990,176.701294 
	C171.386002,177.937531 172.895020,178.902374 173.847580,179.989197 
	C174.928970,178.865692 176.635956,177.894684 176.955109,176.585388 
	C177.532440,174.216827 177.281509,171.646393 177.971237,168.504547 
M34.571938,176.629425 
	C36.754452,179.693527 39.639526,180.312500 43.269791,179.699539 
	C47.546963,178.977325 52.478470,179.282669 52.987869,173.376846 
	C53.485565,167.606735 48.605026,167.189423 44.687065,165.945648 
	C43.428337,165.546051 42.261433,164.857224 41.052517,164.300720 
	C41.161961,163.793854 41.271404,163.286987 41.380848,162.780121 
	C44.428204,162.780121 47.475559,162.780121 51.000340,162.780121 
	C52.996407,160.651108 52.479549,158.576324 49.043629,158.119537 
	C46.023132,157.717987 42.511330,157.439880 39.908852,158.626129 
	C37.921371,159.532089 36.136600,162.710449 35.864212,165.063492 
	C35.560905,167.683609 36.938980,170.422684 40.654324,170.797699 
	C42.527916,170.986816 44.299686,172.184616 46.117496,172.926315 
	C46.060970,173.393600 46.004444,173.860870 45.947918,174.328156 
	C43.791328,174.328156 41.364700,174.958710 39.542351,174.178253 
	C36.902771,173.047806 36.019833,174.394791 34.571938,176.629425 
M96.644470,178.400772 
	C98.627808,178.699722 100.611153,178.998688 102.615021,179.300720 
	C102.615021,173.699188 102.615021,168.956055 102.615021,164.005554 
	C99.995224,164.005554 97.534927,164.457016 95.327667,163.902039 
	C91.825249,163.021408 88.378479,163.259155 87.343384,166.671722 
	C86.384605,169.832672 86.345856,173.951828 87.609726,176.922440 
	C88.952545,180.078644 92.727982,180.036774 96.644470,178.400772 
z"/>
<path fill="#F4FBF7" opacity="1.000000" stroke="none" 
	d="
M145.643524,114.882988 
	C145.126404,110.153397 141.321930,110.038612 138.303375,109.097481 
	C134.346008,107.863663 130.200516,107.206627 126.289818,105.855927 
	C120.005630,103.685478 115.731133,99.761292 115.739326,92.432999 
	C115.747513,85.109993 119.290047,79.917877 125.687126,77.128212 
	C136.686340,72.331635 147.377823,73.867302 158.116699,80.101128 
	C156.755814,83.395004 155.465973,86.516922 154.144272,89.715973 
	C149.763092,88.313980 145.795151,86.753593 141.683441,85.840988 
	C139.338486,85.320526 136.536285,85.270256 134.354111,86.098869 
	C132.540039,86.787704 130.533524,88.900162 130.149994,90.708199 
	C129.916687,91.807968 132.346085,94.206177 134.024185,94.836029 
	C138.505997,96.518166 143.311920,97.320854 147.836990,98.906860 
	C156.938995,102.097061 160.405930,106.756866 159.824799,114.348198 
	C159.257736,121.755554 154.237656,126.971672 145.739548,128.983475 
	C134.988724,131.528580 123.275398,129.731720 114.732666,124.006706 
	C116.018097,120.970299 117.342644,117.841476 118.394669,115.356407 
	C125.126610,116.656616 131.327957,118.354286 137.621124,118.825500 
	C140.163971,119.015900 142.907501,116.526154 145.643524,114.882988 
z"/>
<path fill="#DE151B" opacity="1.000000" stroke="none" 
	d="
M63.105434,100.255493 
	C61.559940,103.685577 60.056263,107.135231 58.461056,110.542038 
	C53.822578,120.448189 57.736755,127.580818 68.643944,129.093475 
	C79.853355,130.648041 90.440262,127.769882 100.993423,124.617096 
	C102.471428,124.175529 103.949043,123.732651 105.426834,123.290382 
	C105.655373,123.820442 105.883904,124.350502 106.112442,124.880562 
	C102.994865,126.395912 99.890007,127.938110 96.757515,129.421967 
	C82.580765,136.137466 68.018028,141.846664 52.468811,144.333435 
	C47.139400,145.185760 41.475597,145.200409 36.136211,144.421371 
	C29.395319,143.437820 25.984880,138.030960 28.874916,131.945480 
	C32.164658,125.018364 37.024067,118.792557 41.560345,112.521706 
	C43.579170,109.730911 46.477264,107.576149 49.628040,104.946487 
	C50.802967,104.040329 51.326126,103.320389 51.849289,102.600449 
	C53.984718,100.767502 56.120144,98.934547 58.941658,97.028992 
	C61.713219,95.227295 63.798695,93.498192 65.884171,91.769089 
	C65.884171,91.769089 65.865822,91.848877 66.191040,91.862610 
	C68.055618,92.301651 69.594978,92.726952 71.134331,93.152260 
	C71.134331,93.152260 71.055458,93.043098 70.737274,93.117294 
	C66.837296,93.677048 65.151573,95.737358 65.316795,99.334930 
	C65.316795,99.334930 65.028786,99.136337 64.852692,99.224945 
	C64.152870,99.627541 63.629154,99.941521 63.105434,100.255493 
z"/>
<path fill="#DA171D" opacity="1.000000" stroke="none" 
	d="
M120.614639,58.752556 
	C136.236923,51.502293 151.758118,45.010315 168.583054,42.658237 
	C173.446060,41.978405 178.588989,42.064060 183.438293,42.836445 
	C189.487808,43.799999 192.577652,48.008743 191.144104,53.533848 
	C187.579330,67.272995 177.272644,75.838310 167.386673,84.615562 
	C166.920792,84.291374 166.454910,83.967186 165.989044,83.642998 
	C166.439545,82.788780 166.853485,81.912788 167.346832,81.084084 
	C169.619843,77.265945 172.460266,73.678665 174.086380,69.605087 
	C177.275375,61.616245 174.252777,55.198055 165.673950,54.024143 
	C158.100601,52.987812 150.098312,53.659149 142.477936,54.829758 
	C135.977982,55.828259 129.789902,58.744217 123.388954,60.545803 
	C120.007851,61.497440 116.459206,61.844475 113.007462,62.566116 
	C112.564064,62.658817 112.248940,63.365067 111.571289,64.128616 
	C114.790924,62.194988 117.532074,60.548733 120.614639,58.752556 
z"/>
<path fill="#ECF9F1" opacity="1.000000" stroke="none" 
	d="
M177.673828,168.832397 
	C177.281509,171.646393 177.532440,174.216827 176.955109,176.585388 
	C176.635956,177.894684 174.928970,178.865692 173.847580,179.989197 
	C172.895020,178.902374 171.386002,177.937531 171.114990,176.701294 
	C170.662628,174.637802 171.147369,172.386169 170.932678,170.244308 
	C170.853226,169.451645 169.913376,168.745255 169.365921,167.999527 
	C168.596375,168.711868 167.304321,169.333527 167.161804,170.154694 
	C166.824936,172.095795 166.956375,174.135086 167.040787,176.128647 
	C167.186691,179.573898 165.577606,180.546234 162.163330,179.619171 
	C162.163330,174.483429 162.163330,169.387024 162.163330,163.571075 
	C166.900726,164.113129 171.502426,164.684677 176.117004,165.119568 
	C176.816025,165.185455 177.577179,164.621674 178.305756,164.339264 
	C183.703751,162.246918 186.533386,164.084961 186.901520,169.943604 
	C186.953613,170.772842 186.912903,171.607986 186.913193,172.440399 
	C186.913879,174.433319 186.913422,176.426239 186.913422,178.850052 
	C185.047409,178.850052 183.357864,178.850052 181.154083,178.850052 
	C181.154083,176.143341 181.179352,173.534683 181.146149,170.926788 
	C181.119217,168.811493 180.739655,167.068192 177.673828,168.832397 
z"/>
<path fill="#E2F5EB" opacity="1.000000" stroke="none" 
	d="
M34.737934,176.341583 
	C36.019833,174.394791 36.902771,173.047806 39.542351,174.178253 
	C41.364700,174.958710 43.791328,174.328156 45.947918,174.328156 
	C46.004444,173.860870 46.060970,173.393600 46.117496,172.926315 
	C44.299686,172.184616 42.527916,170.986816 40.654324,170.797699 
	C36.938980,170.422684 35.560905,167.683609 35.864212,165.063492 
	C36.136600,162.710449 37.921371,159.532089 39.908852,158.626129 
	C42.511330,157.439880 46.023132,157.717987 49.043629,158.119537 
	C52.479549,158.576324 52.996407,160.651108 51.000340,162.780121 
	C47.475559,162.780121 44.428204,162.780121 41.380848,162.780121 
	C41.271404,163.286987 41.161961,163.793854 41.052517,164.300720 
	C42.261433,164.857224 43.428337,165.546051 44.687065,165.945648 
	C48.605026,167.189423 53.485565,167.606735 52.987869,173.376846 
	C52.478470,179.282669 47.546963,178.977325 43.269791,179.699539 
	C39.639526,180.312500 36.754452,179.693527 34.737934,176.341583 
z"/>
<path fill="#E8F6ED" opacity="1.000000" stroke="none" 
	d="
M96.296677,178.493256 
	C92.727982,180.036774 88.952545,180.078644 87.609726,176.922440 
	C86.345856,173.951828 86.384605,169.832672 87.343384,166.671722 
	C88.378479,163.259155 91.825249,163.021408 95.327667,163.902039 
	C97.534927,164.457016 99.995224,164.005554 102.615021,164.005554 
	C102.615021,168.956055 102.615021,173.699188 102.615021,179.300720 
	C100.611153,178.998688 98.627808,178.699722 96.296677,178.493256 
M96.181366,174.616302 
	C96.504158,173.556747 97.353729,172.285385 97.031914,171.485001 
	C96.486656,170.128891 95.201775,169.070129 94.227798,167.886368 
	C93.254211,169.136856 91.628304,170.300079 91.446823,171.656540 
	C91.100479,174.245300 92.722267,175.542755 96.181366,174.616302 
z"/>
<path fill="#EAF8F0" opacity="1.000000" stroke="none" 
	d="
M73.521011,178.316849 
	C69.959396,178.674881 66.352737,179.530914 62.852161,179.214203 
	C60.553829,179.006271 56.974846,177.513519 56.506905,175.872543 
	C55.651199,172.871796 55.938477,169.005234 57.213295,166.154572 
	C57.895714,164.628586 61.582935,164.099716 63.999531,163.792435 
	C66.465210,163.478912 69.035515,163.988174 71.897423,164.157135 
	C72.119301,168.822632 72.344719,173.562439 73.063354,178.251846 
	C73.556587,178.201462 73.521011,178.316849 73.521011,178.316849 
M61.297115,169.079651 
	C61.610561,171.019714 61.820583,172.990570 62.376511,174.858475 
	C62.441456,175.076691 65.063866,175.102676 65.376259,174.564758 
	C66.121376,173.281723 66.949615,171.072174 66.349541,170.226410 
	C65.578262,169.139374 63.442513,169.020447 61.297115,169.079651 
z"/>
<path fill="#E8F7EE" opacity="1.000000" stroke="none" 
	d="
M145.178986,164.108902 
	C146.313690,163.973068 147.457184,163.887741 148.581497,163.692215 
	C152.401291,163.027863 156.474747,163.201263 158.011597,167.048538 
	C159.089783,169.747635 159.106796,173.775482 157.815308,176.297073 
	C156.029175,179.784470 151.954468,180.133087 148.138718,179.042358 
	C147.353134,178.817810 146.607986,178.451828 145.349060,177.683029 
	C141.310745,172.755753 142.488144,168.413559 145.178986,164.108902 
M151.437073,175.175262 
	C152.244888,174.295746 153.676086,173.444504 153.717545,172.530228 
	C153.783264,171.081055 153.167679,169.416443 152.321945,168.204849 
	C152.001282,167.745499 149.677856,167.883896 149.264175,168.462540 
	C148.491959,169.542664 148.035278,171.208359 148.237244,172.507614 
	C148.390289,173.492249 149.769638,174.286270 151.437073,175.175262 
z"/>
<path fill="#1C9E4E" opacity="1.000000" stroke="none" 
	d="
M144.930603,163.872253 
	C142.488144,168.413559 141.310745,172.755753 145.008987,177.570618 
	C142.636612,179.161636 140.109192,180.397049 137.249557,181.794876 
	C137.560959,182.186676 138.330429,183.154831 139.116943,184.144394 
	C135.537796,184.802475 129.253189,181.303375 127.796417,177.257736 
	C131.323059,177.579788 134.537979,178.621613 137.829193,179.000351 
	C138.751297,179.106445 139.898071,177.260056 140.941788,176.309311 
	C139.775589,175.891983 138.568863,175.037216 137.450928,175.140778 
	C134.316483,175.431122 132.516998,174.464005 132.870728,171.119659 
	C133.444778,165.692291 137.406616,168.615494 140.139633,168.333313 
	C142.850845,164.298370 138.945328,164.316238 136.954224,163.178879 
	C136.435638,162.589233 135.917068,161.999603 135.398483,161.409958 
	C135.536362,161.050674 135.674225,160.691376 135.812088,160.332077 
	C138.768814,161.433258 141.725525,162.534424 144.930603,163.872253 
z"/>
<path fill="#E1F5E9" opacity="1.000000" stroke="none" 
	d="
M136.561356,163.228516 
	C138.945328,164.316238 142.850845,164.298370 140.139633,168.333313 
	C137.406616,168.615494 133.444778,165.692291 132.870728,171.119659 
	C132.516998,174.464005 134.316483,175.431122 137.450928,175.140778 
	C138.568863,175.037216 139.775589,175.891983 140.941788,176.309311 
	C139.898071,177.260056 138.751297,179.106445 137.829193,179.000351 
	C134.537979,178.621613 131.323059,177.579788 127.769234,176.862625 
	C127.459198,176.936340 127.402054,176.793640 127.287308,176.814514 
	C127.172569,176.835388 127.153328,176.915237 127.209625,176.651230 
	C127.201950,175.573959 127.137985,174.760696 127.133331,173.526459 
	C127.211235,171.128098 127.229828,169.150711 127.248421,167.173325 
	C129.157867,163.438553 132.872864,163.838547 136.561356,163.228516 
z"/>
<path fill="#F5FCF8" opacity="1.000000" stroke="none" 
	d="
M73.499435,178.220901 
	C74.192665,177.163773 75.512558,176.126831 75.590721,175.003494 
	C75.867531,171.025635 75.580612,167.011658 75.770287,163.023849 
	C75.983253,158.546432 79.219170,155.859573 83.018234,157.126953 
	C83.839188,157.400848 84.539124,160.554443 84.484100,160.579193 
	C79.616119,162.768753 82.226814,167.362808 81.320312,170.716354 
	C80.654854,173.178192 81.189857,175.964554 81.189857,179.798157 
	C78.364708,178.827637 76.262421,178.105438 73.840576,177.850037 
	C73.521011,178.316849 73.556587,178.201462 73.499435,178.220901 
z"/>
<path fill="#CF1C1F" opacity="1.000000" stroke="none" 
	d="
M71.451797,93.039459 
	C69.594978,92.726952 68.055618,92.301651 66.152679,91.848328 
	C73.586586,86.463089 81.384079,81.105850 89.568275,76.030670 
	C89.971146,76.875069 89.987312,77.437424 90.003471,77.999771 
	C83.925400,82.975395 77.847328,87.951019 71.451797,93.039459 
z"/>
<path fill="#F4FDF7" opacity="1.000000" stroke="none" 
	d="
M121.897827,179.412003 
	C121.173073,179.315140 120.448318,179.218262 119.406570,178.553558 
	C119.137398,174.995789 119.185219,172.005814 119.439461,168.846466 
	C120.427315,167.171463 121.208755,165.665863 122.423523,164.126526 
	C123.444679,167.430893 124.032501,170.768982 124.556183,174.451355 
	C124.552574,175.490128 124.613106,176.184601 124.520706,177.228439 
	C124.302002,178.081955 124.236237,178.586090 124.170471,179.090240 
	C124.170464,179.090240 124.082336,179.065659 123.711258,179.096497 
	C122.859398,179.222229 122.378616,179.317108 121.897827,179.412003 
z"/>
<path fill="#39A864" opacity="1.000000" stroke="none" 
	d="
M124.620316,174.107071 
	C124.032501,170.768982 123.444679,167.430893 122.027611,164.048767 
	C120.123283,164.028656 119.048210,164.052597 117.616867,163.914246 
	C116.479492,163.738770 115.698364,163.725555 114.917244,163.712341 
	C116.046967,161.960770 117.176682,160.209183 118.595734,158.604401 
	C119.952477,159.544952 121.178139,161.114441 122.047447,160.937119 
	C123.146606,160.712891 123.955582,159.066269 124.889725,158.033157 
	C125.479202,161.051514 126.068687,164.069885 126.953293,167.130783 
	C127.229828,169.150711 127.211235,171.128098 126.826988,173.471069 
	C125.847664,173.926804 125.233986,174.016937 124.620316,174.107071 
z"/>
<path fill="#F4FDF7" opacity="1.000000" stroke="none" 
	d="
M112.962776,164.514999 
	C113.292503,164.356705 113.622238,164.198410 114.365677,164.377701 
	C113.868401,166.171921 112.957413,167.628540 112.046425,169.085175 
	C112.046425,169.085175 112.034416,169.011856 111.821945,169.180328 
	C111.504974,170.578674 111.400475,171.808548 111.295975,173.038437 
	C111.356888,174.085449 111.417793,175.132477 111.002838,176.577576 
	C109.394585,176.297958 107.205643,175.390472 107.295235,174.978577 
	C108.086075,171.342667 105.932045,166.916077 109.969215,164.119019 
	C110.275551,164.262711 110.581886,164.406387 110.978188,165.063324 
	C111.699699,165.222717 112.331238,164.868866 112.962776,164.514999 
z"/>
<path fill="#E5F5EA" opacity="1.000000" stroke="none" 
	d="
M109.709946,163.981293 
	C105.932045,166.916077 108.086075,171.342667 107.295235,174.978577 
	C107.205643,175.390472 109.394585,176.297958 110.886627,176.957916 
	C109.901535,177.934738 108.556778,178.929276 106.110413,180.738525 
	C106.110413,173.989517 106.110413,169.139008 106.110413,163.843552 
	C107.231239,163.843552 108.340958,163.843552 109.709946,163.981293 
z"/>
<path fill="#B12F25" opacity="1.000000" stroke="none" 
	d="
M90.340218,77.914589 
	C89.987312,77.437424 89.971146,76.875069 89.900421,75.894142 
	C92.749512,73.667870 95.653160,71.860176 98.556816,70.052483 
	C98.934296,70.663445 99.311775,71.274406 99.689255,71.885368 
	C96.685158,73.866714 93.681061,75.848061 90.340218,77.914589 
z"/>
<path fill="#D8F2E3" opacity="1.000000" stroke="none" 
	d="
M124.769714,157.743134 
	C123.955582,159.066269 123.146606,160.712891 122.047447,160.937119 
	C121.178139,161.114441 119.952477,159.544952 118.769516,158.340240 
	C118.793938,157.518539 118.933899,157.107819 119.553955,156.489624 
	C120.682678,156.193130 121.331299,156.104080 121.979919,156.015045 
	C122.869843,156.494400 123.759773,156.973755 124.769714,157.743134 
z"/>
<path fill="#E5F5EA" opacity="1.000000" stroke="none" 
	d="
M112.468750,168.999298 
	C112.957413,167.628540 113.868401,166.171921 114.648224,164.416718 
	C114.517044,164.118134 114.565285,164.148102 114.876007,164.309998 
	C116.115532,164.340118 117.044334,164.208328 117.973129,164.076538 
	C119.048210,164.052597 120.123283,164.028656 121.594284,164.082489 
	C121.208755,165.665863 120.427315,167.171463 119.351746,168.620895 
	C118.684090,168.534180 118.310555,168.503632 117.937027,168.473083 
	C116.255043,168.619858 114.573067,168.766647 112.468750,168.999298 
z"/>
<path fill="#CF1C1F" opacity="1.000000" stroke="none" 
	d="
M65.614471,99.198265 
	C65.151573,95.737358 66.837296,93.677048 70.792130,93.156357 
	C69.414154,95.101357 67.663155,97.081482 65.614471,99.198265 
z"/>
<path fill="#CF1C1F" opacity="1.000000" stroke="none" 
	d="
M65.548195,91.840469 
	C63.798695,93.498192 61.713219,95.227295 59.263878,96.957169 
	C61.004086,95.275917 63.108154,93.593887 65.548195,91.840469 
z"/>
<path fill="#39A864" opacity="1.000000" stroke="none" 
	d="
M117.991882,168.949982 
	C118.310555,168.503632 118.684090,168.534180 119.145332,168.790283 
	C119.185219,172.005814 119.137398,174.995789 119.061508,178.430771 
	C118.704544,175.726151 118.375641,172.576508 117.991882,168.949982 
z"/>
<path fill="#E5F5EA" opacity="1.000000" stroke="none" 
	d="
M111.448563,172.658707 
	C111.400475,171.808548 111.504974,170.578674 111.855942,169.195282 
	C111.935341,170.120850 111.768250,171.199921 111.448563,172.658707 
z"/>
<path fill="#39A864" opacity="1.000000" stroke="none" 
	d="
M121.844139,155.812027 
	C121.331299,156.104080 120.682678,156.193130 119.712791,156.204865 
	C120.163803,155.954697 120.936081,155.781860 121.844139,155.812027 
z"/>
<path fill="#39A864" opacity="1.000000" stroke="none" 
	d="
M124.608505,178.890274 
	C124.236237,178.586090 124.302002,178.081955 124.925980,177.352859 
	C126.040573,177.057022 126.596954,176.986130 127.153328,176.915253 
	C127.153328,176.915237 127.172569,176.835388 127.210686,176.820435 
	C126.514709,177.433777 125.780617,178.062042 124.608505,178.890274 
z"/>
<path fill="#D61A1D" opacity="1.000000" stroke="none" 
	d="
M51.589050,102.791336 
	C51.326126,103.320389 50.802967,104.040329 49.917877,104.808762 
	C50.146900,104.232246 50.737854,103.607239 51.589050,102.791336 
z"/>
<path fill="#39A864" opacity="1.000000" stroke="none" 
	d="
M121.990128,179.627365 
	C122.378616,179.317108 122.859398,179.222229 123.712036,179.142227 
	C123.416725,179.385666 122.749573,179.614197 121.990128,179.627365 
z"/>
<path fill="#E5F5EA" opacity="1.000000" stroke="none" 
	d="
M112.633942,164.636658 
	C112.331238,164.868866 111.699699,165.222717 111.025360,165.333862 
	C111.423416,164.980209 111.864265,164.869247 112.633942,164.636658 
z"/>
<path fill="#F4FDF7" opacity="1.000000" stroke="none" 
	d="
M117.616867,163.914261 
	C117.044334,164.208328 116.115532,164.340118 114.855850,164.294098 
	C114.524971,164.116272 114.718819,163.912155 114.818031,163.812256 
	C115.698364,163.725555 116.479492,163.738770 117.616867,163.914261 
z"/>
<path fill="#CF1C1F" opacity="1.000000" stroke="none" 
	d="
M63.421204,100.208496 
	C63.629154,99.941521 64.152870,99.627541 64.995872,99.318932 
	C64.789093,99.603363 64.263031,99.882423 63.421204,100.208496 
z"/>
<path fill="#159A48" opacity="1.000000" stroke="none" 
	d="
M95.815727,174.819107 
	C92.722267,175.542755 91.100479,174.245300 91.446823,171.656540 
	C91.628304,170.300079 93.254211,169.136856 94.227798,167.886368 
	C95.201775,169.070129 96.486656,170.128891 97.031914,171.485001 
	C97.353729,172.285385 96.504158,173.556747 95.815727,174.819107 
z"/>
<path fill="#189948" opacity="1.000000" stroke="none" 
	d="
M61.595833,168.782074 
	C63.442513,169.020447 65.578262,169.139374 66.349541,170.226410 
	C66.949615,171.072174 66.121376,173.281723 65.376259,174.564758 
	C65.063866,175.102676 62.441456,175.076691 62.376511,174.858475 
	C61.820583,172.990570 61.610561,171.019714 61.595833,168.782074 
z"/>
<path fill="#169C4B" opacity="1.000000" stroke="none" 
	d="
M151.020172,175.170197 
	C149.769638,174.286270 148.390289,173.492249 148.237244,172.507614 
	C148.035278,171.208359 148.491959,169.542664 149.264175,168.462540 
	C149.677856,167.883896 152.001282,167.745499 152.321945,168.204849 
	C153.167679,169.416443 153.783264,171.081055 153.717545,172.530228 
	C153.676086,173.444504 152.244888,174.295746 151.020172,175.170197 
z"/>
<path fill="#029B40" opacity="1.000000" stroke="none" 
	d="
M127.209625,176.651245 
	C126.596954,176.986130 126.040573,177.057022 125.078918,177.003494 
	C124.613106,176.184601 124.552574,175.490128 124.556183,174.451355 
	C125.233986,174.016937 125.847664,173.926804 126.767677,173.892059 
	C127.137985,174.760696 127.201950,175.573959 127.209625,176.651245 
z"/>
</svg>