<svg version="1.1" id="Layer_1" xmlns="http://www.w3.org/2000/svg" xmlns:xlink="http://www.w3.org/1999/xlink" x="0px" y="0px"
	 width="100%" viewBox="0 0 400 400" enable-background="new 0 0 400 400" xml:space="preserve">
<path fill="#49A9B9" opacity="1.000000" stroke="none" 
	d="
M220.000000,401.000000 
	C146.666672,401.000000 73.833336,401.000000 1.000000,401.000000 
	C1.000000,267.666656 1.000000,134.333328 1.000000,1.000000 
	C134.333328,1.000000 267.666656,1.000000 401.000000,1.000000 
	C401.000000,134.333328 401.000000,267.666656 401.000000,401.000000 
	C340.833344,401.000000 280.666656,401.000000 220.000000,401.000000 
M208.312897,237.458450 
	C209.216629,237.960709 210.120346,238.462967 211.580460,239.223785 
	C216.507568,239.162781 221.435669,239.137634 226.360794,239.003830 
	C227.139984,238.982666 227.916473,238.201111 228.676117,238.231033 
	C232.961807,238.399796 237.544434,237.851044 241.434982,239.222778 
	C244.996048,240.478317 247.077164,240.096771 248.191940,236.995636 
	C249.911850,232.211105 253.954361,231.164505 258.227570,229.318085 
	C258.918030,231.911560 259.491119,234.064209 259.950165,235.788376 
	C257.931702,237.179977 256.297607,238.306595 254.663498,239.433212 
	C259.523163,239.736206 263.731537,238.966171 267.966248,238.389832 
	C268.831299,238.272079 269.780823,238.953888 270.716705,239.140335 
	C272.650116,239.525513 274.600525,239.825317 276.543945,240.160248 
	C276.663147,238.459579 276.782349,236.758896 277.384521,234.614120 
	C279.235840,233.126007 280.968597,231.368240 282.751373,234.887070 
	C283.117218,235.609192 284.963989,235.581024 286.789764,235.942352 
	C287.227539,235.998322 287.665283,236.054276 288.160858,236.377686 
	C288.413452,236.288315 288.666016,236.198929 289.633911,236.005051 
	C290.113617,236.045761 290.593292,236.086487 291.426697,236.692001 
	C293.541382,237.508392 295.656036,238.324783 297.680969,239.106522 
	C301.192017,233.874420 301.740875,233.853516 305.928711,238.492767 
	C309.240204,242.161209 319.292419,240.341583 321.267944,235.737564 
	C323.115845,231.430878 324.310547,227.433426 323.873596,222.254288 
	C323.318756,215.677643 325.302917,208.738007 327.009399,202.167084 
	C328.340851,197.040176 330.057007,192.666153 322.210266,192.431763 
	C321.807739,192.419754 321.437012,191.837219 321.025482,191.558701 
	C314.246918,186.970535 311.421906,186.892242 304.792786,191.467407 
	C302.086426,193.335236 299.775146,193.474091 297.154419,191.272614 
	C293.112915,187.877625 288.787964,186.319977 283.428528,188.859360 
	C281.731903,189.663254 278.574097,189.435898 277.126648,188.324203 
	C272.967133,185.129623 269.621948,187.023758 266.959930,189.716904 
	C262.191193,194.541412 257.742310,195.053665 253.022018,190.908722 
	C254.088623,187.785736 254.851395,184.864151 256.102753,182.169464 
	C256.759735,180.754715 258.060242,179.200409 259.443390,178.654068 
	C262.187653,177.570068 265.158203,176.917862 268.093933,176.491470 
	C272.932404,175.788712 273.868958,174.171204 271.125458,170.048233 
	C268.987122,166.834656 267.306976,163.970795 270.335938,160.190079 
	C271.163727,159.156845 270.468231,156.708038 270.132294,154.974686 
	C269.170990,150.015228 265.326477,147.167358 262.199402,143.612061 
	C259.871735,140.965637 257.760315,139.347397 254.713440,140.293976 
	C246.451523,142.860733 238.207123,141.268524 229.966858,140.701553 
	C226.472900,140.461136 224.850983,141.517517 225.208267,145.201752 
	C225.208267,145.201752 225.108688,145.237976 224.386978,145.173981 
	C220.220261,145.361603 219.578293,146.755951 222.603592,149.835098 
	C225.916504,153.207001 227.258408,164.339584 224.890137,168.341232 
	C224.369308,169.221252 223.258591,169.752197 222.833191,170.102875 
	C221.104874,167.270432 220.088043,163.544052 217.837860,162.515213 
	C215.729980,161.551468 212.316040,163.444305 209.697632,164.030624 
	C209.697632,167.276917 209.697632,170.051636 209.697632,171.905319 
	C211.597961,172.368988 213.032379,172.718994 214.466797,173.068985 
	C213.712173,174.422470 213.193909,176.010513 212.142746,177.069717 
	C210.844391,178.378036 209.103134,179.246826 207.136459,180.590240 
	C208.956345,182.098434 210.167297,183.102005 210.675949,183.523544 
	C210.502777,186.506760 210.371490,188.768433 209.649979,191.412079 
	C207.868835,192.594971 206.087677,193.777847 204.159256,195.058548 
	C202.637573,194.593323 200.884430,194.057343 198.884888,193.446014 
	C199.627090,187.782333 200.444870,182.390076 200.962418,176.969147 
	C201.084824,175.687134 200.611237,173.792252 199.702866,173.065964 
	C196.151062,170.226227 191.796326,169.924286 187.930847,171.798706 
	C184.499115,173.462830 182.794250,176.890198 183.212784,180.980286 
	C183.432358,183.126099 184.023605,185.312485 183.800613,187.411911 
	C182.573654,198.964371 181.165894,210.497910 179.774628,222.032440 
	C179.456436,224.670486 179.152023,227.340057 178.450607,229.887573 
	C178.162933,230.932388 176.840408,231.692307 175.988647,232.581833 
	C175.308899,231.593826 174.149780,230.651672 174.049988,229.608200 
	C173.847168,227.487549 174.152084,225.305801 174.363449,223.160645 
	C174.835892,218.366074 175.270905,213.563843 175.916046,208.791092 
	C177.308548,198.489365 178.598007,188.164139 180.414566,177.934647 
	C181.028046,174.479874 180.142410,172.621811 177.077057,172.025314 
	C174.183624,171.462280 171.161865,171.475616 168.192627,171.408340 
	C165.162704,171.339691 163.727493,173.096863 163.414276,176.000000 
	C162.493561,184.534500 160.961807,193.052048 160.766022,201.601364 
	C160.587662,209.390152 155.135468,215.973419 156.428146,223.934769 
	C156.483566,224.276031 155.508667,224.784576 154.662781,224.577408 
	C152.466660,220.234039 149.576309,219.418579 144.862076,221.325287 
	C141.932571,222.510147 137.946823,224.560486 133.504242,220.264557 
	C136.506775,219.651459 138.312347,219.288483 140.115433,218.913620 
	C147.994446,217.275497 155.303589,214.731781 157.267654,205.646057 
	C158.051178,202.021484 158.613205,198.009979 153.725861,195.367172 
	C149.642624,193.059341 145.638000,190.587814 141.419510,188.561584 
	C140.395950,188.069962 138.565125,188.816772 137.283447,189.391190 
	C133.983459,190.870224 130.616913,192.318069 127.611412,194.288513 
	C126.051590,195.311188 125.200768,197.415298 123.402946,199.293243 
	C119.358437,202.325577 118.958374,206.982498 117.409904,211.339874 
	C115.266487,217.371445 116.594803,225.969208 122.031013,230.823257 
	C123.636162,232.336914 124.987396,234.542786 126.891563,235.241287 
	C134.139648,237.900040 141.553894,237.440781 148.565231,234.396027 
	C150.490341,233.560043 151.656906,230.977249 153.784790,229.062515 
	C154.194916,228.971756 154.605057,228.880981 155.441315,229.409958 
	C156.020493,231.309311 156.435959,233.283020 157.250107,235.075668 
	C157.638962,235.931854 158.752106,236.968567 159.593338,237.020889 
	C163.091019,237.238464 166.610062,237.112366 170.938522,237.112366 
	C172.610443,233.034454 176.934601,235.058716 181.810501,235.901306 
	C185.579849,235.248688 189.349197,234.596085 194.006378,233.966675 
	C196.687347,233.957092 199.368332,233.947510 202.445755,234.490906 
	C204.321793,235.275558 206.197815,236.060211 208.312897,237.458450 
M122.468758,185.974731 
	C124.782906,185.974731 127.097046,185.974731 130.062393,185.974731 
	C130.454849,182.382294 130.816605,179.070938 131.235077,175.240540 
	C117.142868,175.240540 103.862663,175.183243 90.585472,175.356857 
	C89.597054,175.369781 88.040428,176.891769 87.772903,177.967194 
	C87.165146,180.410416 87.196098,183.012527 86.915306,186.128418 
	C92.201569,186.128418 96.623299,186.128418 101.610069,186.128418 
	C99.672951,202.605606 97.805489,218.490265 95.898567,234.710587 
	C100.627380,234.710587 104.547882,234.710587 108.925797,234.710587 
	C110.994179,218.464478 113.037247,202.417130 115.130035,185.979309 
	C117.608620,185.979309 119.572166,185.979309 122.468758,185.974731 
z"/>
<path fill="#59A8A6" opacity="1.000000" stroke="none" 
	d="
M276.901581,235.058228 
	C276.782349,236.758896 276.663147,238.459579 276.543945,240.160248 
	C274.600525,239.825317 272.650116,239.525513 270.716705,239.140335 
	C269.780823,238.953888 268.831299,238.272079 267.966248,238.389832 
	C263.731537,238.966171 259.523163,239.736206 254.663498,239.433212 
	C256.297607,238.306595 257.931702,237.179977 259.950165,235.788376 
	C259.491119,234.064209 258.918030,231.911560 258.227570,229.318085 
	C253.954361,231.164505 249.911850,232.211105 248.191940,236.995636 
	C247.077164,240.096771 244.996048,240.478317 241.434982,239.222778 
	C237.544434,237.851044 232.961807,238.399796 228.676117,238.231033 
	C227.916473,238.201111 227.139984,238.982666 226.360794,239.003830 
	C221.435669,239.137634 216.507568,239.162781 211.398941,238.819717 
	C211.788757,237.636673 212.360092,236.857697 213.269318,236.111633 
	C219.150635,236.279434 219.510330,236.019196 218.166702,232.440201 
	C217.468124,230.330063 216.813080,228.593994 216.095612,226.503860 
	C215.091202,224.360474 214.149216,222.571121 213.165375,220.403595 
	C212.111542,216.706848 211.099564,213.388275 210.263672,209.919128 
	C210.668457,209.559189 210.879410,209.333282 211.352722,208.941681 
	C212.143356,207.903900 212.653915,207.015259 213.344467,205.974243 
	C213.759216,205.608368 213.963226,205.368698 214.307190,204.947754 
	C214.697830,204.575562 214.896606,204.340576 215.253601,203.868805 
	C215.683060,203.145340 215.933182,202.640778 216.346771,201.981049 
	C216.725494,201.615662 216.934616,201.399490 217.446274,201.047729 
	C219.885269,198.597809 223.968140,197.334290 221.892334,192.552460 
	C217.858704,191.840668 214.049454,191.435394 210.240189,191.030121 
	C210.371490,188.768433 210.502777,186.506760 210.675949,183.523544 
	C210.167297,183.102005 208.956345,182.098434 207.136459,180.590240 
	C209.103134,179.246826 210.844391,178.378036 212.142746,177.069717 
	C213.193909,176.010513 213.712173,174.422470 214.466797,173.068985 
	C213.032379,172.718994 211.597961,172.368988 209.697632,171.905319 
	C209.697632,170.051636 209.697632,167.276917 209.697632,164.030624 
	C212.316040,163.444305 215.729980,161.551468 217.837860,162.515213 
	C220.088043,163.544052 221.104874,167.270432 222.833191,170.102875 
	C223.258591,169.752197 224.369308,169.221252 224.890137,168.341232 
	C227.258408,164.339584 225.916504,153.207001 222.603592,149.835098 
	C219.578293,146.755951 220.220261,145.361603 224.814514,145.547729 
	C226.417557,149.025604 227.022598,152.534927 228.882217,155.153214 
	C233.350647,161.444641 231.325516,166.017883 226.599823,171.037354 
	C222.359650,175.541107 218.994217,180.868408 215.081161,186.046417 
	C223.825500,188.624100 227.605301,187.483536 232.168518,181.353271 
	C235.147003,177.351929 237.752213,173.000946 241.160828,169.410568 
	C244.997375,165.369431 244.881058,161.592712 242.844589,156.814301 
	C237.037323,143.188080 241.033401,145.084076 225.242966,145.101639 
	C224.850983,141.517517 226.472900,140.461136 229.966858,140.701553 
	C238.207123,141.268524 246.451523,142.860733 254.713440,140.293976 
	C257.760315,139.347397 259.871735,140.965637 262.199402,143.612061 
	C265.326477,147.167358 269.170990,150.015228 270.132294,154.974686 
	C270.468231,156.708038 271.163727,159.156845 270.335938,160.190079 
	C267.306976,163.970795 268.987122,166.834656 271.125458,170.048233 
	C273.868958,174.171204 272.932404,175.788712 268.093933,176.491470 
	C265.158203,176.917862 262.187653,177.570068 259.443390,178.654068 
	C258.060242,179.200409 256.759735,180.754715 256.102753,182.169464 
	C254.851395,184.864151 254.088623,187.785736 253.022018,190.908722 
	C257.742310,195.053665 262.191193,194.541412 266.959930,189.716904 
	C269.621948,187.023758 272.967133,185.129623 277.126648,188.324203 
	C278.574097,189.435898 281.731903,189.663254 283.428528,188.859360 
	C288.787964,186.319977 293.112915,187.877625 297.154419,191.272614 
	C299.775146,193.474091 302.086426,193.335236 304.792786,191.467407 
	C311.421906,186.892242 314.246918,186.970535 321.025482,191.558701 
	C321.437012,191.837219 321.807739,192.419754 322.210266,192.431763 
	C330.057007,192.666153 328.340851,197.040176 327.009399,202.167084 
	C325.302917,208.738007 323.318756,215.677643 323.873596,222.254288 
	C324.310547,227.433426 323.115845,231.430878 321.267944,235.737564 
	C319.292419,240.341583 309.240204,242.161209 305.928711,238.492767 
	C301.740875,233.853516 301.192017,233.874420 297.680969,239.106522 
	C295.656036,238.324783 293.541382,237.508392 291.632751,236.316544 
	C293.836823,235.383499 295.834778,234.825928 297.812256,234.274063 
	C298.582275,227.251709 298.971375,220.424698 300.210754,213.755692 
	C300.849884,210.316559 302.712372,206.975601 304.617523,203.967377 
	C305.334015,202.836105 307.811218,202.232544 309.334076,202.450058 
	C310.082214,202.556915 311.019165,205.114929 310.944977,206.514603 
	C310.699554,211.143845 310.033661,215.750839 309.527313,220.366180 
	C309.013000,225.054459 308.496490,229.742493 307.924377,234.944977 
	C311.220032,234.944977 313.702728,234.764893 316.148285,234.989594 
	C319.362091,235.284882 320.617340,233.843155 320.930176,230.814941 
	C321.782379,222.565079 322.978180,214.345993 323.637482,206.082779 
	C324.015045,201.350449 323.183502,196.605881 318.822998,193.671478 
	C314.851776,190.999054 310.449615,191.386749 306.550812,193.719513 
	C303.922180,195.292282 301.838409,197.775787 299.416534,199.936081 
	C297.956238,195.520569 295.774902,191.384689 290.485046,192.259369 
	C286.499786,192.918335 282.759247,195.057587 278.761261,196.595047 
	C278.077148,191.943481 274.071930,192.347015 270.432373,192.754425 
	C266.361694,193.210114 267.425842,196.799606 267.064026,199.376862 
	C266.487640,203.482513 266.032288,207.605331 265.540741,211.722672 
	C264.643005,219.242752 263.756256,226.764130 262.787231,234.940475 
	C267.235809,234.940475 271.018738,234.940475 275.152527,234.958252 
	C275.969421,235.003448 276.435516,235.030838 276.901581,235.058228 
M223.653976,204.743118 
	C223.653976,204.743118 223.676498,204.760300 223.181763,205.284973 
	C222.404510,210.221909 221.627258,215.158844 220.828140,220.739319 
	C220.930023,221.155151 221.031906,221.570999 221.036728,222.698334 
	C221.657471,224.169144 222.278229,225.639938 222.911682,227.110184 
	C222.911682,227.110184 222.887177,227.128967 223.005630,227.809464 
	C225.398071,231.971924 229.001831,234.324646 233.724503,235.063736 
	C247.283508,237.185730 259.509918,226.229721 259.923676,211.567368 
	C260.216888,201.174454 256.313446,195.049789 247.843338,192.709686 
	C247.843338,192.709686 247.640427,192.822662 246.922836,192.285934 
	C239.476852,191.344040 232.883514,192.819077 227.484695,199.144363 
	C227.194550,199.336273 227.026505,199.604645 226.381912,200.242844 
	C225.469589,201.733978 224.557281,203.225113 223.653976,204.743118 
M239.121017,182.079880 
	C238.171982,183.434784 237.222961,184.789688 236.273926,186.144592 
	C236.517593,186.532272 236.761261,186.919952 237.004929,187.307617 
	C241.545486,186.015686 246.827515,189.552933 250.761398,184.676529 
	C253.447784,181.346481 255.791779,177.740234 258.823669,173.855057 
	C265.921661,167.646973 267.191803,160.513702 262.362457,152.313766 
	C261.527893,150.896790 261.328918,149.085938 260.418976,147.738983 
	C259.662598,146.619415 258.358826,145.268295 257.182159,145.147919 
	C253.793030,144.801254 250.345490,145.025543 245.705521,145.025543 
	C248.215012,150.938995 250.451111,155.709213 252.205826,160.650360 
	C252.725510,162.113693 252.452087,164.447601 251.576309,165.715485 
	C247.803436,171.177658 243.671585,176.391876 239.121017,182.079880 
M303.486084,228.038300 
	C304.137268,228.779465 304.788422,229.520630 305.439606,230.261795 
	C305.861206,229.137512 306.282806,228.013229 306.704437,226.888947 
	C305.726685,227.086411 304.748932,227.283875 303.486084,228.038300 
M264.440002,151.526642 
	C264.921936,152.346527 265.403839,153.166428 265.885773,153.986313 
	C266.264160,153.516968 266.642548,153.047607 267.020935,152.578262 
	C266.150146,152.045715 265.279327,151.513153 264.440002,151.526642 
M260.072052,226.259048 
	C260.001678,226.255951 259.931335,226.252869 260.072052,226.259048 
M212.468994,189.499527 
	C212.468994,189.499527 212.511765,189.484146 212.468994,189.499527 
z"/>
<path fill="#F3FCFC" opacity="1.000000" stroke="none" 
	d="
M274.801697,234.940475 
	C271.018738,234.940475 267.235809,234.940475 262.787231,234.940475 
	C263.756256,226.764130 264.643005,219.242752 265.540741,211.722672 
	C266.032288,207.605331 266.487640,203.482513 267.064026,199.376862 
	C267.425842,196.799606 266.361694,193.210114 270.432373,192.754425 
	C274.071930,192.347015 278.077148,191.943481 278.761261,196.595047 
	C282.759247,195.057587 286.499786,192.918335 290.485046,192.259369 
	C295.774902,191.384689 297.956238,195.520569 299.416534,199.936081 
	C301.838409,197.775787 303.922180,195.292282 306.550812,193.719513 
	C310.449615,191.386749 314.851776,190.999054 318.822998,193.671478 
	C323.183502,196.605881 324.015045,201.350449 323.637482,206.082779 
	C322.978180,214.345993 321.782379,222.565079 320.930176,230.814941 
	C320.617340,233.843155 319.362091,235.284882 316.148285,234.989594 
	C313.702728,234.764893 311.220032,234.944977 307.924377,234.944977 
	C308.496490,229.742493 309.013000,225.054459 309.527313,220.366180 
	C310.033661,215.750839 310.699554,211.143845 310.944977,206.514603 
	C311.019165,205.114929 310.082214,202.556915 309.334076,202.450058 
	C307.811218,202.232544 305.334015,202.836105 304.617523,203.967377 
	C302.712372,206.975601 300.849884,210.316559 300.210754,213.755692 
	C298.971375,220.424698 298.582275,227.251709 297.812256,234.274063 
	C295.834778,234.825928 293.836823,235.383499 291.455933,236.034149 
	C290.593292,236.086487 290.113617,236.045761 289.072876,236.008087 
	C288.511841,236.011124 288.103058,236.110229 288.103058,236.110229 
	C287.665283,236.054276 287.227539,235.998322 286.323975,235.583527 
	C285.721039,234.439346 285.389923,233.631943 285.476410,232.872040 
	C286.447784,224.336029 287.608490,215.818817 288.393158,207.266724 
	C288.544861,205.613739 287.293427,203.832001 286.689240,202.109665 
	C284.943542,202.824585 282.535004,203.060822 281.597321,204.359268 
	C279.914124,206.690079 278.566345,209.559097 278.052063,212.380692 
	C276.690674,219.849960 275.849731,227.414093 274.801697,234.940475 
z"/>
<path fill="#F3FDFC" opacity="1.000000" stroke="none" 
	d="
M122.002228,185.977020 
	C119.572166,185.979309 117.608620,185.979309 115.130035,185.979309 
	C113.037247,202.417130 110.994179,218.464478 108.925797,234.710587 
	C104.547882,234.710587 100.627380,234.710587 95.898567,234.710587 
	C97.805489,218.490265 99.672951,202.605606 101.610069,186.128418 
	C96.623299,186.128418 92.201569,186.128418 86.915306,186.128418 
	C87.196098,183.012527 87.165146,180.410416 87.772903,177.967194 
	C88.040428,176.891769 89.597054,175.369781 90.585472,175.356857 
	C103.862663,175.183243 117.142868,175.240540 131.235077,175.240540 
	C130.816605,179.070938 130.454849,182.382294 130.062393,185.974731 
	C127.097046,185.974731 124.782906,185.974731 122.002228,185.977020 
z"/>
<path fill="#F4FDFD" opacity="1.000000" stroke="none" 
	d="
M193.118546,233.943466 
	C189.349197,234.596085 185.579849,235.248688 181.178894,235.479507 
	C180.436874,232.955261 180.040085,230.821304 180.267487,228.756058 
	C181.081223,221.365997 182.108063,213.999451 183.051483,206.623642 
	C184.428909,195.854706 185.803848,185.085464 187.164963,174.432938 
	C191.472778,174.432938 195.157288,174.432938 198.960968,174.432938 
	C198.960968,176.408875 199.113113,177.912369 198.936371,179.376144 
	C197.747543,189.222153 196.488892,199.059723 195.149445,209.325394 
	C194.715652,213.046799 194.385223,216.342819 193.996140,220.082336 
	C193.664490,224.998367 193.391510,229.470917 193.118546,233.943466 
z"/>
<path fill="#64AA91" opacity="1.000000" stroke="none" 
	d="
M195.252838,208.900024 
	C196.488892,199.059723 197.747543,189.222153 198.936371,179.376144 
	C199.113113,177.912369 198.960968,176.408875 198.960968,174.432938 
	C195.157288,174.432938 191.472778,174.432938 187.164963,174.432938 
	C185.803848,185.085464 184.428909,195.854706 183.051483,206.623642 
	C182.108063,213.999451 181.081223,221.365997 180.267487,228.756058 
	C180.040085,230.821304 180.436874,232.955261 180.728714,235.383728 
	C176.934601,235.058716 172.610443,233.034454 170.938522,237.112366 
	C166.610062,237.112366 163.091019,237.238464 159.593338,237.020889 
	C158.752106,236.968567 157.638962,235.931854 157.250107,235.075668 
	C156.435959,233.283020 156.020493,231.309311 155.072357,228.924179 
	C154.492157,228.200134 154.262497,227.981140 154.016754,227.508820 
	C154.053055,226.874344 154.087036,226.512497 154.283325,226.006714 
	C154.647247,225.657684 154.836624,225.441818 155.013748,225.215195 
	C155.508667,224.784576 156.483566,224.276031 156.428146,223.934769 
	C155.135468,215.973419 160.587662,209.390152 160.766022,201.601364 
	C160.961807,193.052048 162.493561,184.534500 163.414276,176.000000 
	C163.727493,173.096863 165.162704,171.339691 168.192627,171.408340 
	C171.161865,171.475616 174.183624,171.462280 177.077057,172.025314 
	C180.142410,172.621811 181.028046,174.479874 180.414566,177.934647 
	C178.598007,188.164139 177.308548,198.489365 175.916046,208.791092 
	C175.270905,213.563843 174.835892,218.366074 174.363449,223.160645 
	C174.152084,225.305801 173.847168,227.487549 174.049988,229.608200 
	C174.149780,230.651672 175.308899,231.593826 175.988647,232.581833 
	C176.840408,231.692307 178.162933,230.932388 178.450607,229.887573 
	C179.152023,227.340057 179.456436,224.670486 179.774628,222.032440 
	C181.165894,210.497910 182.573654,198.964371 183.800613,187.411911 
	C184.023605,185.312485 183.432358,183.126099 183.212784,180.980286 
	C182.794250,176.890198 184.499115,173.462830 187.930847,171.798706 
	C191.796326,169.924286 196.151062,170.226227 199.702866,173.065964 
	C200.611237,173.792252 201.084824,175.687134 200.962418,176.969147 
	C200.444870,182.390076 199.627090,187.782333 198.884888,193.446014 
	C200.884430,194.057343 202.637573,194.593323 204.159256,195.058548 
	C206.087677,193.777847 207.868835,192.594971 209.945084,191.221100 
	C214.049454,191.435394 217.858704,191.840668 221.819244,192.614105 
	C221.970520,192.982269 221.825363,193.106750 221.377258,193.069351 
	C214.252365,192.177658 207.884644,192.158127 203.866333,199.375336 
	C202.780563,200.730881 201.976639,201.956284 201.113144,203.163803 
	C201.053574,203.145920 201.177887,203.144119 200.977966,203.283264 
	C200.534805,203.649734 200.360275,203.921249 200.276108,204.208649 
	C200.297745,204.180328 200.327072,204.245285 200.083618,204.400787 
	C199.576492,205.052444 199.312820,205.548599 199.024872,206.022369 
	C199.000610,206.000000 199.050690,206.044937 198.770981,206.161102 
	C198.125000,206.946533 197.758728,207.615799 197.406174,208.335571 
	C197.419891,208.386093 197.328079,208.436356 197.061584,208.454742 
	C196.281006,208.615417 195.766922,208.757721 195.252838,208.900024 
M158.338470,233.503418 
	C162.320496,234.159897 166.302521,234.816391 170.612717,235.526978 
	C173.167557,214.474213 175.588425,194.525513 178.084412,173.957626 
	C174.810577,173.957626 172.336304,174.123016 169.893250,173.917557 
	C166.510223,173.633041 165.347488,174.975067 164.970459,178.375687 
	C162.962051,196.491013 160.680649,214.576096 158.338470,233.503418 
M199.828629,200.289444 
	C199.954147,200.114716 200.079666,199.939987 200.205185,199.765244 
	C200.021408,199.875916 199.837646,199.986588 199.828629,200.289444 
z"/>
<path fill="#56A8B5" opacity="1.000000" stroke="none" 
	d="
M275.152527,234.958252 
	C275.849731,227.414093 276.690674,219.849960 278.052063,212.380692 
	C278.566345,209.559097 279.914124,206.690079 281.597321,204.359268 
	C282.535004,203.060822 284.943542,202.824585 286.689240,202.109665 
	C287.293427,203.832001 288.544861,205.613739 288.393158,207.266724 
	C287.608490,215.818817 286.447784,224.336029 285.476410,232.872040 
	C285.389923,233.631943 285.721039,234.439346 285.993164,235.561707 
	C284.963989,235.581024 283.117218,235.609192 282.751373,234.887070 
	C280.968597,231.368240 279.235840,233.126007 277.143066,234.836182 
	C276.435516,235.030838 275.969421,235.003448 275.152527,234.958252 
z"/>
<path fill="#5FA6AF" opacity="1.000000" stroke="none" 
	d="
M154.838257,224.896301 
	C154.836624,225.441818 154.647247,225.657684 153.992859,225.798874 
	C151.098572,221.646500 148.248901,222.173813 144.331360,224.021652 
	C141.478409,225.367371 137.666733,225.646652 134.547089,225.040207 
	C133.058945,224.750946 132.186249,221.295441 131.034790,219.274109 
	C132.516342,218.509903 133.922913,217.484390 135.494339,217.033447 
	C139.287643,215.944901 143.309204,215.519363 146.967010,214.117508 
	C155.591171,210.812271 157.565338,204.994095 153.468842,196.559830 
	C153.764297,196.247971 153.882462,196.123215 154.000626,195.998444 
	C158.613205,198.009979 158.051178,202.021484 157.267654,205.646057 
	C155.303589,214.731781 147.994446,217.275497 140.115433,218.913620 
	C138.312347,219.288483 136.506775,219.651459 133.504242,220.264557 
	C137.946823,224.560486 141.932571,222.510147 144.862076,221.325287 
	C149.576309,219.418579 152.466660,220.234039 154.838257,224.896301 
z"/>
<path fill="#54A6AD" opacity="1.000000" stroke="none" 
	d="
M193.562469,233.955078 
	C193.391510,229.470917 193.664490,224.998367 194.151550,219.832947 
	C195.250381,218.081451 196.135147,217.022827 197.095520,216.116150 
	C197.171143,216.268082 197.249786,216.598297 197.273926,216.875031 
	C197.505020,217.451202 197.711975,217.750641 197.957642,218.042206 
	C197.996338,218.034348 197.919540,218.065643 197.882553,218.420288 
	C197.940063,219.478149 198.034576,220.181381 198.023560,221.153259 
	C198.053879,222.457581 198.009552,223.558884 198.358490,224.516968 
	C199.512299,227.685135 200.808044,230.801605 202.049301,233.937927 
	C199.368332,233.947510 196.687347,233.957092 193.562469,233.955078 
z"/>
<path fill="#5FA6AF" opacity="1.000000" stroke="none" 
	d="
M124.029648,199.030853 
	C125.200768,197.415298 126.051590,195.311188 127.611412,194.288513 
	C130.616913,192.318069 133.983459,190.870224 137.283447,189.391190 
	C138.565125,188.816772 140.395950,188.069962 141.419510,188.561584 
	C145.638000,190.587814 149.642624,193.059341 153.863251,195.682800 
	C153.882462,196.123215 153.764297,196.247971 153.201324,196.338455 
	C143.735809,189.472733 134.605331,190.584229 124.586380,199.540710 
	C124.277229,199.257309 124.153435,199.144089 124.029648,199.030853 
z"/>
<path fill="#5FA6AF" opacity="1.000000" stroke="none" 
	d="
M121.846626,230.144012 
	C116.594803,225.969208 115.266487,217.371445 117.409904,211.339874 
	C118.958374,206.982498 119.358437,202.325577 123.716293,199.162048 
	C124.153435,199.144089 124.277229,199.257309 124.378799,199.815948 
	C117.822342,209.692352 116.259415,219.485275 122.114738,229.904602 
	C122.025345,229.984390 121.846626,230.144012 121.846626,230.144012 
z"/>
<path fill="#5FA6AF" opacity="1.000000" stroke="none" 
	d="
M153.171555,229.196030 
	C151.656906,230.977249 150.490341,233.560043 148.565231,234.396027 
	C141.553894,237.440781 134.139648,237.900040 126.891563,235.241287 
	C124.987396,234.542786 123.636162,232.336914 121.938820,230.483643 
	C121.846626,230.144012 122.025345,229.984390 122.408371,230.076630 
	C126.111137,231.823776 129.270599,234.228882 132.783554,234.979385 
	C140.384552,236.603256 147.077530,233.848648 152.980927,228.983551 
	C153.045029,229.053864 153.171555,229.196030 153.171555,229.196030 
z"/>
<path fill="#64AA91" opacity="1.000000" stroke="none" 
	d="
M202.247528,234.214417 
	C200.808044,230.801605 199.512299,227.685135 198.358490,224.516968 
	C198.009552,223.558884 198.053879,222.457581 198.259399,221.158707 
	C198.600723,220.895523 199.073532,220.871246 199.266571,221.171600 
	C200.610077,224.233932 201.744949,227.002548 202.914276,229.756516 
	C205.289520,235.350662 212.753067,237.009796 217.912216,233.014114 
	C218.011719,232.947739 218.210236,232.814255 218.210236,232.814255 
	C219.510330,236.019196 219.150635,236.279434 212.914291,236.102722 
	C210.838852,236.322235 209.456345,236.583542 208.073853,236.844849 
	C206.197815,236.060211 204.321793,235.275558 202.247528,234.214417 
z"/>
<path fill="#54A6AD" opacity="1.000000" stroke="none" 
	d="
M208.193375,237.151642 
	C209.456345,236.583542 210.838852,236.322235 212.576385,236.069824 
	C212.360092,236.857697 211.788757,237.636673 211.120758,238.690430 
	C210.120346,238.462967 209.216629,237.960709 208.193375,237.151642 
z"/>
<path fill="#5FA6AF" opacity="1.000000" stroke="none" 
	d="
M154.014450,227.781448 
	C154.262497,227.981140 154.492157,228.200134 154.859283,228.614319 
	C154.605057,228.880981 154.194916,228.971756 153.478180,229.129272 
	C153.171555,229.196030 153.045029,229.053864 153.105225,228.745972 
	C153.448425,228.219208 153.731445,228.000336 154.014450,227.781448 
z"/>
<path fill="#59A8A6" opacity="1.000000" stroke="none" 
	d="
M288.131958,236.243958 
	C288.103058,236.110229 288.511841,236.011124 288.715210,236.060333 
	C288.666016,236.198929 288.413452,236.288315 288.131958,236.243958 
z"/>
<path fill="#F0FCFB" opacity="1.000000" stroke="none" 
	d="
M248.008789,192.872635 
	C256.313446,195.049789 260.216888,201.174454 259.923676,211.567368 
	C259.509918,226.229721 247.283508,237.185730 233.724503,235.063736 
	C229.001831,234.324646 225.398071,231.971924 223.353897,227.441956 
	C226.460342,226.897888 229.218506,226.721298 232.771790,226.493805 
	C232.013412,223.635361 231.483444,221.302307 230.770477,219.026550 
	C229.602676,215.298935 231.863129,208.256744 235.005066,206.423843 
	C234.304779,211.021988 233.123093,215.234497 233.192581,219.426285 
	C233.228424,221.588501 235.362717,225.378220 236.772156,225.485016 
	C239.183624,225.667694 243.206436,224.135529 243.995468,222.252213 
	C245.838089,217.854095 246.469391,212.854645 247.014038,208.033524 
	C247.537842,203.396851 245.187088,200.822693 240.376251,200.857727 
	C243.324844,198.296295 248.579407,198.439148 248.008789,192.872635 
z"/>
<path fill="#F0F151" opacity="1.000000" stroke="none" 
	d="
M225.225616,145.151703 
	C241.033401,145.084076 237.037323,143.188080 242.844589,156.814301 
	C244.881058,161.592712 244.997375,165.369431 241.160828,169.410568 
	C237.752213,173.000946 235.147003,177.351929 232.168518,181.353271 
	C227.605301,187.483536 223.825500,188.624100 215.081161,186.046417 
	C218.994217,180.868408 222.359650,175.541107 226.599823,171.037354 
	C231.325516,166.017883 233.350647,161.444641 228.882217,155.153214 
	C227.022598,152.534927 226.417557,149.025604 225.175354,145.579712 
	C225.108688,145.237976 225.208267,145.201752 225.225616,145.151703 
z"/>
<path fill="#FCFDFC" opacity="1.000000" stroke="none" 
	d="
M247.926056,192.791168 
	C248.579407,198.439148 243.324844,198.296295 240.346497,200.841431 
	C240.193573,201.148575 240.239746,201.098999 240.019501,201.199219 
	C239.515884,201.455017 239.253769,201.640594 238.776276,202.001434 
	C238.082840,202.450623 237.626038,202.754593 236.959351,203.251465 
	C236.535004,203.757385 236.320541,204.070419 236.074188,204.567871 
	C236.042313,204.752304 235.800110,205.037735 235.646576,205.188232 
	C235.298965,205.553375 235.141663,205.792267 235.009552,206.035522 
	C234.997955,206.015640 235.042114,206.029633 235.042114,206.029633 
	C231.863129,208.256744 229.602676,215.298935 230.770477,219.026550 
	C231.483444,221.302307 232.013412,223.635361 232.771790,226.493805 
	C229.218506,226.721298 226.460342,226.897888 223.294678,227.101715 
	C222.887177,227.128967 222.911682,227.110184 222.925751,226.732697 
	C222.337814,224.899094 221.735794,223.442963 221.133789,221.986832 
	C221.031906,221.570999 220.930023,221.155151 221.050934,220.123474 
	C225.038559,215.074768 225.918350,210.171844 223.676498,204.760300 
	C223.676498,204.760300 223.653976,204.743118 223.998367,204.666611 
	C225.222031,203.043228 226.101303,201.496353 226.980576,199.949478 
	C227.026505,199.604645 227.194550,199.336273 228.095795,199.035461 
	C235.018066,196.891937 241.329239,194.857300 247.640427,192.822662 
	C247.640427,192.822662 247.843338,192.709686 247.926056,192.791168 
z"/>
<path fill="#E3F16D" opacity="1.000000" stroke="none" 
	d="
M239.670441,181.696381 
	C243.671585,176.391876 247.803436,171.177658 251.576309,165.715485 
	C252.452087,164.447601 252.725510,162.113693 252.205826,160.650360 
	C250.451111,155.709213 248.215012,150.938995 245.705521,145.025543 
	C250.345490,145.025543 253.793030,144.801254 257.182159,145.147919 
	C258.358826,145.268295 259.662598,146.619415 260.418976,147.738983 
	C261.328918,149.085938 261.527893,150.896790 262.362457,152.313766 
	C267.191803,160.513702 265.921661,167.646973 258.388855,173.903900 
	C257.954071,173.952728 257.619659,173.647598 257.730743,173.312866 
	C258.708008,171.405212 259.296326,169.566589 260.495697,168.312195 
	C263.391937,165.283081 263.464874,161.943954 262.582550,158.169647 
	C261.033936,151.545074 256.836609,148.313690 249.603119,147.711243 
	C250.216263,149.588760 250.607300,151.128540 251.212296,152.579071 
	C253.736053,158.629868 259.584290,164.739380 250.657074,170.464401 
	C250.019073,170.873550 249.789383,171.870255 249.245621,172.483658 
	C246.314377,175.790314 243.343887,179.062195 240.207809,182.183624 
	C240.028702,182.021194 239.670441,181.696381 239.670441,181.696381 
z"/>
<path fill="#E3F16D" opacity="1.000000" stroke="none" 
	d="
M258.121460,174.105103 
	C255.791779,177.740234 253.447784,181.346481 250.761398,184.676529 
	C246.827515,189.552933 241.545486,186.015686 237.004929,187.307617 
	C236.761261,186.919952 236.517593,186.532272 236.273926,186.144592 
	C237.222961,184.789688 238.171982,183.434784 239.395721,181.888123 
	C239.670441,181.696381 240.028702,182.021194 240.183197,182.509720 
	C243.396469,186.607254 246.173431,186.723953 249.156326,183.337402 
	C251.990860,180.119293 254.799591,176.878448 257.619659,173.647598 
	C257.619659,173.647598 257.954071,173.952728 258.121460,174.105103 
z"/>
<path fill="#F0FCFB" opacity="1.000000" stroke="none" 
	d="
M247.281631,192.554291 
	C241.329239,194.857300 235.018066,196.891937 228.325287,198.953949 
	C232.883514,192.819077 239.476852,191.344040 247.281631,192.554291 
z"/>
<path fill="#F0FCFB" opacity="1.000000" stroke="none" 
	d="
M223.429138,205.022644 
	C225.918350,210.171844 225.038559,215.074768 221.061859,219.801697 
	C221.627258,215.158844 222.404510,210.221909 223.429138,205.022644 
z"/>
<path fill="#64AA91" opacity="1.000000" stroke="none" 
	d="
M210.087585,210.069702 
	C211.099564,213.388275 212.111542,216.706848 213.091080,220.473907 
	C213.058655,220.922409 212.909149,221.062073 212.668488,220.811310 
	C211.708466,218.904648 210.766052,217.305252 210.328613,215.577988 
	C209.828690,213.603973 209.777985,211.516205 209.670197,209.626556 
	C209.808289,209.775238 210.087585,210.069702 210.087585,210.069702 
z"/>
<path fill="#49A9B9" opacity="1.000000" stroke="none" 
	d="
M303.628632,227.759811 
	C304.748932,227.283875 305.726685,227.086411 306.704437,226.888947 
	C306.282806,228.013229 305.861206,229.137512 305.439606,230.261795 
	C304.788422,229.520630 304.137268,228.779465 303.628632,227.759811 
z"/>
<path fill="#64AA91" opacity="1.000000" stroke="none" 
	d="
M222.043610,192.920624 
	C223.968140,197.334290 219.885269,198.597809 217.367859,200.963501 
	C216.980743,201.008911 216.821884,200.842361 216.937164,200.528137 
	C218.643433,197.844879 220.234406,195.475815 221.825378,193.106750 
	C221.825363,193.106750 221.970520,192.982269 222.043610,192.920624 
z"/>
<path fill="#49A9B9" opacity="1.000000" stroke="none" 
	d="
M264.424255,151.253632 
	C265.279327,151.513153 266.150146,152.045715 267.020935,152.578262 
	C266.642548,153.047607 266.264160,153.516968 265.885773,153.986313 
	C265.403839,153.166428 264.921936,152.346527 264.424255,151.253632 
z"/>
<path fill="#64AA91" opacity="1.000000" stroke="none" 
	d="
M213.132950,220.852081 
	C214.149216,222.571121 215.091202,224.360474 215.926147,226.641785 
	C215.819092,227.133774 215.480042,227.409470 215.273087,227.138824 
	C214.347137,224.932816 213.628143,222.997437 212.909149,221.062073 
	C212.909149,221.062073 213.058655,220.922409 213.132950,220.852081 
z"/>
<path fill="#64AA91" opacity="1.000000" stroke="none" 
	d="
M215.988556,226.995850 
	C216.813080,228.593994 217.468124,230.330063 218.166702,232.440201 
	C218.210236,232.814255 218.011719,232.947739 217.680908,232.766785 
	C216.726746,230.860382 216.103394,229.134933 215.480042,227.409470 
	C215.480042,227.409470 215.819092,227.133774 215.988556,226.995850 
z"/>
<path fill="#F0FCFB" opacity="1.000000" stroke="none" 
	d="
M226.681244,200.096161 
	C226.101303,201.496353 225.222031,203.043228 223.993866,204.653168 
	C224.557281,203.225113 225.469589,201.733978 226.681244,200.096161 
z"/>
<path fill="#F0FCFB" opacity="1.000000" stroke="none" 
	d="
M221.085266,222.342590 
	C221.735794,223.442963 222.337814,224.899094 222.919403,226.732986 
	C222.278229,225.639938 221.657471,224.169144 221.085266,222.342590 
z"/>
<path fill="#64AA91" opacity="1.000000" stroke="none" 
	d="
M213.164459,206.126617 
	C212.653915,207.015259 212.143356,207.903900 211.232468,208.828552 
	C210.832123,208.864578 210.588562,208.641632 210.695572,208.354706 
	C211.482468,207.328278 212.162369,206.588806 212.922241,205.919342 
	C213.002197,205.989334 213.164459,206.126617 213.164459,206.126617 
z"/>
<path fill="#49A9B9" opacity="1.000000" stroke="none" 
	d="
M259.966492,226.254425 
	C259.931335,226.252869 260.001678,226.255951 259.966492,226.254425 
z"/>
<path fill="#64AA91" opacity="1.000000" stroke="none" 
	d="
M216.183304,202.136215 
	C215.933182,202.640778 215.683060,203.145340 215.118286,203.748077 
	C214.803650,203.846237 214.530090,203.608109 214.630951,203.344757 
	C215.108795,202.677307 215.485794,202.273193 215.942627,201.936203 
	C216.022461,202.003342 216.183304,202.136215 216.183304,202.136215 
z"/>
<path fill="#64AA91" opacity="1.000000" stroke="none" 
	d="
M210.952377,208.977692 
	C210.879410,209.333282 210.668457,209.559189 210.263672,209.919128 
	C210.087585,210.069702 209.808289,209.775238 209.799744,209.434280 
	C210.010193,208.860184 210.275986,208.709610 210.588562,208.641632 
	C210.588562,208.641632 210.832123,208.864578 210.952377,208.977692 
z"/>
<path fill="#64AA91" opacity="1.000000" stroke="none" 
	d="
M214.136475,205.102859 
	C213.963226,205.368698 213.759216,205.608368 213.344452,205.974243 
	C213.164459,206.126617 213.002197,205.989334 212.997833,205.682648 
	C213.154358,205.067062 213.397720,204.851181 213.826050,204.822784 
	C213.928513,204.917252 214.136475,205.102859 214.136475,205.102859 
z"/>
<path fill="#64AA91" opacity="1.000000" stroke="none" 
	d="
M214.938950,203.966980 
	C214.896606,204.340576 214.697830,204.575562 214.307190,204.947754 
	C214.136475,205.102859 213.928513,204.917252 213.898987,204.596222 
	C214.014969,203.978882 214.235184,203.756516 214.530090,203.608109 
	C214.530090,203.608109 214.803650,203.846237 214.938950,203.966980 
z"/>
<path fill="#64AA91" opacity="1.000000" stroke="none" 
	d="
M217.059174,201.093140 
	C216.934616,201.399490 216.725494,201.615662 216.346771,201.981049 
	C216.183304,202.136215 216.022461,202.003342 216.033386,201.708496 
	C216.234604,201.129425 216.493805,200.939011 216.821884,200.842361 
	C216.821884,200.842361 216.980743,201.008911 217.059174,201.093140 
z"/>
<path fill="#49A9B9" opacity="1.000000" stroke="none" 
	d="
M212.490387,189.491837 
	C212.511765,189.484146 212.468994,189.499527 212.490387,189.491837 
z"/>
<path fill="#83B276" opacity="1.000000" stroke="none" 
	d="
M197.019897,215.964203 
	C196.135147,217.022827 195.250381,218.081451 194.210205,219.389465 
	C194.385223,216.342819 194.715652,213.046799 195.149445,209.325394 
	C195.766922,208.757721 196.281006,208.615417 196.968658,208.786163 
	C197.101456,211.387543 197.060669,213.675873 197.019897,215.964203 
z"/>
<path fill="#F2FCFB" opacity="1.000000" stroke="none" 
	d="
M154.016754,227.508820 
	C153.731445,228.000336 153.448425,228.219208 153.041107,228.675659 
	C147.077530,233.848648 140.384552,236.603256 132.783554,234.979385 
	C129.270599,234.228882 126.111137,231.823776 122.497772,229.996841 
	C116.259415,219.485275 117.822342,209.692352 124.564171,199.986130 
	C134.605331,190.584229 143.735809,189.472733 153.024017,196.525543 
	C157.565338,204.994095 155.591171,210.812271 146.967010,214.117508 
	C143.309204,215.519363 139.287643,215.944901 135.494339,217.033447 
	C133.922913,217.484390 132.516342,218.509903 131.034790,219.274109 
	C132.186249,221.295441 133.058945,224.750946 134.547089,225.040207 
	C137.666733,225.646652 141.478409,225.367371 144.331360,224.021652 
	C148.248901,222.173813 151.098572,221.646500 153.830566,225.942810 
	C154.087036,226.512497 154.053055,226.874344 154.016754,227.508820 
M143.511505,205.743286 
	C143.123627,204.187042 143.067505,201.540329 142.279144,201.300476 
	C140.613556,200.793777 138.034683,200.900986 136.791992,201.924164 
	C134.662857,203.677185 133.271133,206.325821 131.569794,208.598404 
	C131.944427,209.108337 132.319061,209.618271 132.693695,210.128220 
	C136.120728,208.865067 139.547745,207.601929 143.511505,205.743286 
z"/>
<path fill="#F4FDFD" opacity="1.000000" stroke="none" 
	d="
M158.416092,233.087524 
	C160.680649,214.576096 162.962051,196.491013 164.970459,178.375687 
	C165.347488,174.975067 166.510223,173.633041 169.893250,173.917557 
	C172.336304,174.123016 174.810577,173.957626 178.084412,173.957626 
	C175.588425,194.525513 173.167557,214.474213 170.612717,235.526978 
	C166.302521,234.816391 162.320496,234.159897 158.416092,233.087524 
z"/>
<path fill="#F1F14F" opacity="1.000000" stroke="none" 
	d="
M197.095520,216.116135 
	C197.060669,213.675873 197.101456,211.387543 197.235153,208.767792 
	C197.328079,208.436356 197.419891,208.386093 197.655670,208.192642 
	C198.277878,207.347778 198.664276,206.696350 199.050690,206.044937 
	C199.050690,206.044937 199.000610,206.000000 199.268250,205.868896 
	C199.799622,205.240295 200.063354,204.742798 200.327072,204.245285 
	C200.327072,204.245285 200.297745,204.180328 200.503998,204.098984 
	C200.866135,203.726471 201.022018,203.435287 201.177887,203.144119 
	C201.177887,203.144119 201.053574,203.145920 201.397797,203.023422 
	C202.544083,201.682343 203.346146,200.463776 204.148193,199.245209 
	C207.884644,192.158127 214.252365,192.177658 221.377274,193.069351 
	C220.234406,195.475815 218.643433,197.844879 216.937164,200.528137 
	C216.493805,200.939011 216.234604,201.129425 215.953552,201.641357 
	C215.485794,202.273193 215.108795,202.677307 214.630951,203.344757 
	C214.235184,203.756516 214.014969,203.978882 213.796509,204.501740 
	C213.397720,204.851181 213.154358,205.067062 212.917877,205.612640 
	C212.162369,206.588806 211.482468,207.328278 210.695572,208.354706 
	C210.275986,208.709610 210.010193,208.860184 209.661636,209.285583 
	C209.777985,211.516205 209.828690,213.603973 210.328613,215.577988 
	C210.766052,217.305252 211.708466,218.904648 212.668488,220.811310 
	C213.628143,222.997437 214.347137,224.932816 215.273087,227.138824 
	C216.103394,229.134933 216.726746,230.860382 217.581421,232.833160 
	C212.753067,237.009796 205.289520,235.350662 202.914276,229.756516 
	C201.744949,227.002548 200.610077,224.233932 199.262787,220.860840 
	C198.683823,219.521698 198.301682,218.793671 197.919540,218.065643 
	C197.919540,218.065643 197.996338,218.034348 197.965057,217.756744 
	C197.705780,217.185532 197.477783,216.891907 197.249786,216.598297 
	C197.249786,216.598297 197.171143,216.268082 197.095520,216.116135 
z"/>
<path fill="#83B276" opacity="1.000000" stroke="none" 
	d="
M203.866333,199.375336 
	C203.346146,200.463776 202.544083,201.682343 201.457367,203.041306 
	C201.976639,201.956284 202.780563,200.730881 203.866333,199.375336 
z"/>
<path fill="#83B276" opacity="1.000000" stroke="none" 
	d="
M198.770981,206.161102 
	C198.664276,206.696350 198.277878,207.347778 197.641968,208.142120 
	C197.758728,207.615799 198.125000,206.946533 198.770981,206.161102 
z"/>
<path fill="#49A9B9" opacity="1.000000" stroke="none" 
	d="
M199.741257,200.193359 
	C199.837646,199.986588 200.021408,199.875916 200.205200,199.765244 
	C200.079666,199.939987 199.954147,200.114716 199.741257,200.193359 
z"/>
<path fill="#83B276" opacity="1.000000" stroke="none" 
	d="
M200.083618,204.400787 
	C200.063354,204.742798 199.799622,205.240295 199.292511,205.891266 
	C199.312820,205.548599 199.576492,205.052444 200.083618,204.400787 
z"/>
<path fill="#83B276" opacity="1.000000" stroke="none" 
	d="
M200.977966,203.283264 
	C201.022018,203.435287 200.866135,203.726471 200.482361,204.127289 
	C200.360275,203.921249 200.534805,203.649734 200.977966,203.283264 
z"/>
<path fill="#83B276" opacity="1.000000" stroke="none" 
	d="
M197.882553,218.420288 
	C198.301682,218.793671 198.683823,219.521698 199.069733,220.560486 
	C199.073532,220.871246 198.600723,220.895523 198.364899,220.890076 
	C198.034576,220.181381 197.940063,219.478149 197.882553,218.420288 
z"/>
<path fill="#83B276" opacity="1.000000" stroke="none" 
	d="
M197.273926,216.875031 
	C197.477783,216.891907 197.705780,217.185532 197.926361,217.764618 
	C197.711975,217.750641 197.505020,217.451202 197.273926,216.875031 
z"/>
<path fill="#54A7B3" opacity="1.000000" stroke="none" 
	d="
M237.169250,203.058594 
	C237.626038,202.754593 238.082840,202.450623 239.042816,202.003876 
	C239.777252,201.607056 240.008499,201.353043 240.239746,201.098999 
	C240.239746,201.098999 240.193573,201.148575 240.223312,201.164856 
	C245.187088,200.822693 247.537842,203.396851 247.014038,208.033524 
	C246.469391,212.854645 245.838089,217.854095 243.995468,222.252213 
	C243.206436,224.135529 239.183624,225.667694 236.772156,225.485016 
	C235.362717,225.378220 233.228424,221.588501 233.192581,219.426285 
	C233.123093,215.234497 234.304779,211.021988 235.005066,206.423843 
	C235.042114,206.029633 234.997955,206.015640 235.215256,205.931152 
	C235.703690,205.644547 235.826218,205.374893 235.800110,205.037735 
	C235.800110,205.037735 236.042313,204.752304 236.318344,204.407242 
	C236.785995,203.727646 236.977615,203.393127 237.169250,203.058594 
z"/>
<path fill="#F0FCFB" opacity="1.000000" stroke="none" 
	d="
M235.646576,205.188232 
	C235.826218,205.374893 235.703690,205.644547 235.226852,205.951050 
	C235.141663,205.792267 235.298965,205.553375 235.646576,205.188232 
z"/>
<path fill="#F0FCFB" opacity="1.000000" stroke="none" 
	d="
M236.959366,203.251480 
	C236.977615,203.393127 236.785995,203.727646 236.350220,204.222809 
	C236.320541,204.070419 236.535004,203.757385 236.959366,203.251480 
z"/>
<path fill="#F0FCFB" opacity="1.000000" stroke="none" 
	d="
M240.019501,201.199234 
	C240.008499,201.353043 239.777252,201.607056 239.279449,201.858643 
	C239.253769,201.640594 239.515884,201.455017 240.019501,201.199234 
z"/>
<path fill="#FBF13B" opacity="1.000000" stroke="none" 
	d="
M257.730743,173.312866 
	C254.799591,176.878448 251.990860,180.119293 249.156326,183.337402 
	C246.173431,186.723953 243.396469,186.607254 240.362305,182.672150 
	C243.343887,179.062195 246.314377,175.790314 249.245621,172.483658 
	C249.789383,171.870255 250.019073,170.873550 250.657074,170.464401 
	C259.584290,164.739380 253.736053,158.629868 251.212296,152.579071 
	C250.607300,151.128540 250.216263,149.588760 249.603119,147.711243 
	C256.836609,148.313690 261.033936,151.545074 262.582550,158.169647 
	C263.464874,161.943954 263.391937,165.283081 260.495697,168.312195 
	C259.296326,169.566589 258.708008,171.405212 257.730743,173.312866 
z"/>
<path fill="#5FA6AF" opacity="1.000000" stroke="none" 
	d="
M143.243134,206.041031 
	C139.547745,207.601929 136.120728,208.865067 132.693695,210.128220 
	C132.319061,209.618271 131.944427,209.108337 131.569794,208.598404 
	C133.271133,206.325821 134.662857,203.677185 136.791992,201.924164 
	C138.034683,200.900986 140.613556,200.793777 142.279144,201.300476 
	C143.067505,201.540329 143.123627,204.187042 143.243134,206.041031 
z"/>
</svg>